<svg xmlns="http://www.w3.org/2000/svg" width="512" height="512" viewBox="0 0 512 512" version="1.1">
	<path d="M 247.500 29.667 C 206.206 32.201, 166.576 45.737, 131.500 69.287 C 97.148 92.351, 70.882 123.558, 54.510 160.760 C 37.814 198.697, 30.698 243.956, 35.431 282.108 C 38.542 307.188, 45.343 330.310, 56.429 353.500 C 68.896 379.575, 81.391 397.351, 101.493 417.607 C 176.395 493.082, 290.915 504.103, 378 444.217 C 428.377 409.575, 461.993 358.656, 473.696 299.263 C 476.228 286.415, 476.409 283.739, 476.421 259 C 476.433 235.952, 476.144 230.872, 474.204 219.999 C 465.203 169.555, 445.242 129.775, 412.128 96.290 C 380.603 64.412, 339.896 42.470, 295.664 33.514 C 283.928 31.137, 262.486 28.836, 255.500 29.203 C 253.850 29.290, 250.250 29.499, 247.500 29.667 M 235.996 44.064 C 206.578 47.192, 171.080 60.054, 145 77.034 C 118.328 94.400, 94.281 118.606, 78.972 143.500 C 65.267 165.786, 54.880 195.339, 50.329 225 C 47.923 240.678, 47.925 272.513, 50.333 286.500 C 56.816 324.171, 74.008 362.896, 96.724 391 C 104.650 400.805, 123.529 419.139, 133 426.229 C 159.167 445.815, 191.895 460.433, 222.136 466.042 C 238.501 469.077, 264.889 469.777, 280 467.577 C 359.719 455.969, 427.041 399.413, 452.817 322.395 C 459.400 302.728, 463.005 279.300, 462.992 256.289 C 462.960 203.414, 445.545 155.860, 411.798 116.500 C 387.458 88.111, 353.289 65.223, 317.829 53.555 C 290.778 44.653, 261.925 41.307, 235.996 44.064 M 238.500 48.585 C 236.850 48.821, 231.900 49.488, 227.500 50.069 C 201.194 53.543, 168.012 66.065, 144.629 81.343 C 97.705 112.003, 67.473 156.578, 56.588 211.153 C 46.902 259.724, 52.383 302.903, 73.897 347.500 C 88.630 378.041, 104.098 398.297, 128.058 418.430 C 154.504 440.651, 191.799 457.253, 227.298 462.605 C 243.073 464.984, 273.695 464.668, 289.754 461.961 C 312.814 458.074, 343.503 446.157, 363.246 433.423 C 394.754 413.100, 422.206 382.173, 438.496 348.644 C 452.323 320.186, 458.362 296.599, 459.655 266 C 461.178 229.990, 453.348 192.976, 437.576 161.616 C 422.546 131.732, 404.926 110.491, 378 89.796 C 352.476 70.179, 319.335 55.860, 287 50.478 C 277.950 48.972, 244.850 47.680, 238.500 48.585 M 230.651 60.512 C 183.569 68.144, 140.138 91.807, 109.913 126.296 C 80.129 160.281, 64.932 203.709, 64.875 255 C 64.840 285.333, 70.228 310.042, 83.408 340 C 107.829 395.511, 159.336 436.437, 222.061 450.171 C 231.250 452.183, 235.254 452.456, 255.500 452.456 C 275.757 452.456, 279.747 452.183, 288.958 450.167 C 305.302 446.589, 320.279 441.391, 335.500 434.014 C 351.741 426.143, 363.851 418.410, 376.500 407.835 C 413.059 377.268, 435.311 338.534, 444.196 290 C 447.056 274.381, 447.269 244.668, 444.641 228 C 438.073 186.340, 423.263 152.471, 400.183 126.330 C 371.845 94.232, 332.654 71.753, 288.733 62.404 C 273.332 59.126, 244.914 58.200, 230.651 60.512 M 185.655 81.829 C 182.977 84.788, 183.513 90.472, 186.707 92.984 C 190.002 95.576, 193.518 95.024, 196.750 91.407 C 199.546 88.278, 199.591 86.021, 196.927 82.635 C 194.368 79.381, 188.265 78.945, 185.655 81.829 M 314.321 81.189 C 310.850 82.867, 309.527 87.185, 311.384 90.776 C 313.044 93.985, 314.773 95, 318.582 95 C 324.747 95, 327.377 86.015, 322.365 82.073 C 319.472 79.797, 317.621 79.593, 314.321 81.189 M 237 94.017 C 211.501 97.567, 188.419 106.403, 166.921 120.842 C 135.562 141.905, 115.123 168.948, 103.691 204.500 C 97.597 223.453, 96.549 230.858, 96.545 255 C 96.541 273.679, 96.841 277.878, 98.827 287 C 104.017 310.836, 114.536 335.193, 126.682 351.500 C 135.547 363.401, 153.321 380.956, 164.504 388.853 C 194.091 409.747, 230.286 419.235, 268.162 416.026 C 324.026 411.292, 366.560 383.905, 394.833 334.466 C 405.429 315.938, 411.926 295.106, 414.099 272.693 C 417.343 239.233, 406.752 195.720, 388.737 168.495 C 363.889 130.946, 326.271 104.791, 284.500 96.023 C 273.076 93.624, 247.559 92.547, 237 94.017 M 240 106.026 C 223.290 108.047, 205.894 113.068, 192.500 119.736 C 147.955 141.911, 118.947 179.543, 109.337 227.626 C 106.910 239.773, 106.881 268.748, 109.283 281.724 C 114.332 308.993, 128.663 338.377, 145.587 356.156 C 165.515 377.092, 185.188 389.892, 209.803 397.935 C 253.349 412.166, 305.392 404.148, 341.464 377.652 C 365.408 360.064, 386.209 331.576, 395.498 303.651 C 401.254 286.350, 402.444 278.614, 402.446 258.500 C 402.448 238.624, 400.556 226.198, 394.832 208.500 C 375.994 150.252, 319.702 107.245, 260 105.487 C 253.125 105.285, 244.125 105.528, 240 106.026 M 242 116.985 C 219.885 119.109, 198.370 127.233, 177.500 141.337 C 166.573 148.722, 148.490 166.595, 141.243 177.174 C 130.190 193.308, 121.733 214.061, 118.382 233.276 C 115.984 247.025, 116.946 272.948, 120.359 286.571 C 128.342 318.433, 144.841 344.242, 169.606 363.604 C 207.534 393.256, 254.393 401.307, 300.106 386.025 C 331.451 375.546, 356.099 355.557, 373.581 326.438 C 400.438 281.706, 398.868 225.305, 369.519 180.500 C 351.926 153.644, 323.561 131.800, 294.426 122.673 C 277.829 117.474, 258.614 115.389, 242 116.985 M 404.321 157.167 C 400.985 158.813, 399.516 163.218, 401.160 166.646 C 404.775 174.186, 415 171.993, 415 163.677 C 415 158.564, 408.956 154.879, 404.321 157.167 M 98.016 159.707 C 92.511 166.705, 102.909 175.535, 109.222 169.222 C 110.494 167.951, 111.333 165.834, 111.333 163.900 C 111.333 157.263, 102.200 154.388, 98.016 159.707 M 215.024 160.539 C 203.829 163.679, 194.623 171.213, 190.214 180.844 C 188.136 185.384, 187.644 187.950, 187.698 193.992 C 187.845 210.752, 195.658 221.131, 227 246.209 C 234.975 252.591, 244.186 260.554, 247.469 263.906 C 250.751 267.258, 253.744 270, 254.118 270 C 254.493 270, 257.657 267.020, 261.150 263.378 C 264.642 259.737, 274.475 251.339, 283 244.717 C 303.767 228.587, 308.962 224.031, 313.935 217.585 C 319.720 210.086, 322.205 203.145, 322.198 194.500 C 322.185 177.171, 311.025 164.199, 292.859 160.398 C 281.650 158.053, 269.536 160.418, 261.556 166.509 C 259.041 168.429, 256.533 170, 255.983 170 C 255.433 170, 253.139 168.665, 250.886 167.032 C 241.463 160.206, 226.115 157.427, 215.024 160.539 M 343.479 191.034 C 343.127 191.603, 342.428 195.091, 341.924 198.784 C 340.661 208.057, 333.934 221.429, 325.645 231.143 C 318.323 239.724, 306.386 249.582, 280.684 268.270 C 271.025 275.294, 262.835 281.946, 262.483 283.053 C 261.998 284.583, 263.204 286.534, 267.520 291.195 C 274.620 298.864, 279.442 306.079, 282.505 313.614 C 283.812 316.829, 285.292 319.597, 285.795 319.765 C 286.298 319.933, 287.934 318.464, 289.431 316.502 C 290.927 314.540, 295.889 309.222, 300.457 304.685 C 315.055 290.185, 319.682 280.744, 322.389 259.928 C 323.966 247.802, 325.234 244.828, 331.076 239.550 C 334.907 236.089, 335.371 235.911, 336.288 237.550 C 339.346 243.014, 338.655 263.392, 334.954 276.895 C 330.105 294.584, 321.580 307.762, 305.164 322.947 C 299.379 328.298, 294.661 333.532, 294.055 335.273 C 292.780 338.930, 292.679 352.945, 293.914 354.896 C 295.544 357.469, 297.732 355.276, 298.470 350.330 C 299.643 342.469, 301.200 340.070, 312.965 328 C 327.583 313.003, 332.180 306.820, 338.614 293.500 C 347.382 275.349, 348.011 271.206, 348.336 229.481 C 348.560 200.707, 348.352 193.520, 347.250 191.947 C 345.736 189.784, 344.444 189.472, 343.479 191.034 M 162.322 192.604 C 161.983 193.486, 162.079 200.798, 162.534 208.854 C 162.990 216.909, 163.402 233.400, 163.451 245.500 L 163.539 267.500 166.865 277.500 C 174.324 299.931, 182.483 312.735, 200.729 330.642 C 212.067 341.770, 212.083 341.793, 213.200 348.142 C 213.815 351.639, 214.903 355.140, 215.618 355.923 C 219.234 359.883, 219.767 341.418, 216.236 334.500 C 215.394 332.850, 209.483 326.325, 203.102 320 C 194.278 311.254, 190.236 306.351, 186.225 299.525 C 177.067 283.943, 172.259 264.752, 173.317 248 C 173.864 239.327, 174.606 236, 175.993 236 C 177.534 236, 184.100 243.583, 185.951 247.500 C 186.996 249.713, 188.286 255.761, 188.838 261.036 C 190.016 272.302, 192.837 281.291, 197.732 289.367 C 201.104 294.931, 222.599 318.500, 224.301 318.500 C 224.742 318.500, 226.113 316.014, 227.348 312.976 C 230.177 306.015, 234.829 299.224, 242.200 291.292 C 246.125 287.068, 247.770 284.564, 247.346 283.458 C 247.002 282.564, 238.744 275.831, 228.994 268.495 C 204.966 250.418, 194.304 241.406, 187.249 233.209 C 176.152 220.316, 171.928 212.947, 168.943 201.277 C 166.499 191.723, 163.944 188.376, 162.322 192.604 M 136.908 208.172 C 136.149 209.590, 135.923 213.494, 136.257 219.422 C 136.803 229.130, 140.963 243.926, 145.276 251.500 C 148.113 256.482, 151.529 257.369, 152.998 253.504 C 154.314 250.043, 154.269 239.543, 152.915 234.500 C 151.087 227.687, 140.802 206, 139.399 206 C 138.668 206, 137.547 206.977, 136.908 208.172 M 365.478 215.214 C 358.458 232.337, 357.053 237.154, 357.026 244.185 C 356.993 252.757, 358.184 256, 361.365 256 C 364.130 256, 366.259 252.159, 370.656 239.236 C 375.098 226.178, 374.951 207.795, 370.393 206.293 C 369.784 206.093, 367.572 210.107, 365.478 215.214 M 131.931 250.130 C 129.341 254.968, 134.601 270.232, 141.481 277.848 C 145.765 282.589, 154.145 287.235, 157.655 286.816 C 164.986 285.940, 162.259 278.276, 152.028 271.004 C 146.620 267.159, 144.895 265.163, 141.528 258.850 C 135.463 247.477, 134.041 246.186, 131.931 250.130 M 372.732 251.250 C 371.909 253.037, 370.684 256.231, 370.009 258.347 C 368.763 262.250, 364.508 266.969, 355.102 274.879 C 350.379 278.851, 349.923 279.595, 350.197 282.879 C 350.471 286.151, 350.810 286.530, 353.720 286.811 C 363.599 287.766, 376.425 273.885, 379.116 259.329 C 380.893 249.719, 376.181 243.756, 372.732 251.250 M 248.058 301.250 C 239.254 313.204, 235 322.051, 235 328.407 C 235 334.066, 235.393 334.689, 247.813 348.729 C 253.051 354.651, 254.526 355.789, 255.966 355.018 C 256.932 354.501, 261.723 349.484, 266.612 343.870 C 275.337 333.849, 275.499 333.568, 275.445 328.581 C 275.403 324.712, 274.504 321.831, 271.677 316.500 C 267.604 308.821, 256.376 293, 255 293 C 254.524 293, 251.400 296.712, 248.058 301.250 M 152.513 314.979 C 151.488 316.638, 153.844 319.829, 159.289 324.157 C 168.319 331.333, 180.501 335.501, 190.500 334.834 C 194.845 334.544, 195.461 334.238, 195.201 332.500 C 195.037 331.400, 192.991 328.650, 190.656 326.388 C 187.025 322.873, 185.436 322.107, 179.698 321.108 C 176.007 320.465, 169.201 318.603, 164.574 316.970 C 155.554 313.786, 153.463 313.441, 152.513 314.979 M 347.566 316.571 C 343.752 317.903, 337.002 319.675, 332.566 320.509 C 323.854 322.146, 321.275 323.579, 316.564 329.400 C 313.609 333.051, 313.573 333.215, 315.431 334.573 C 317.925 336.397, 325.871 335.552, 336.078 332.378 C 347.260 328.901, 360 319.355, 360 314.453 C 360 313.321, 353.889 314.362, 347.566 316.571 M 98.174 336.314 C 96.978 337.587, 96 339.858, 96 341.360 C 96 344.834, 100.090 349, 103.500 349 C 106.834 349, 111 344.834, 111 341.500 C 111 338.014, 106.836 334, 103.220 334 C 101.512 334, 99.468 334.937, 98.174 336.314 M 403 336 C 401.900 337.100, 401 339.300, 401 340.889 C 401 347.997, 409.030 350.992, 413.658 345.611 C 416.654 342.129, 416.622 339.531, 413.545 336.455 C 410.515 333.424, 405.780 333.220, 403 336 M 185.913 417.282 C 181.571 420.616, 181.310 425.348, 185.267 429.034 C 187.983 431.565, 191.058 431.529, 194.365 428.927 C 196.997 426.857, 197.955 421.976, 196.235 419.400 C 194.171 416.309, 188.655 415.177, 185.913 417.282 M 315.635 418.073 C 312.190 420.782, 312.114 425.205, 315.455 428.545 C 318.454 431.545, 321.870 431.677, 325.365 428.927 C 328.810 426.218, 328.886 421.795, 325.545 418.455 C 322.546 415.455, 319.130 415.323, 315.635 418.073" stroke="none" fill="black" fill-rule="evenodd"/>
</svg>