<svg version="1.1" xmlns="http://www.w3.org/2000/svg" xmlns:xlink="http://www.w3.org/1999/xlink" width="969" height="570"><defs><clipPath id="OoeiSIEyClDV"><path fill="none" stroke="none" d=" M 0 0 L 969 0 L 969 570 L 0 570 L 0 0 Z"/></clipPath></defs><g transform="scale(1,1)" clip-path="url(#OoeiSIEyClDV)"><g><rect fill="rgb(255,255,255)" stroke="none" x="0" y="0" width="969" height="570" fill-opacity="1"/><path fill="none" stroke="rgb(97,97,97)" paint-order="fill stroke markers" d=" M 532.6639166231739 286.0218126032503 C 532.6639166231739 407.23642530654905 434.40005786689255 505.5002840628298 313.18544516359304 505.5002840628298 C 191.97083246029354 505.5002840628298 93.7069737040122 407.23642530654905 93.7069737040122 286.0218126032503 C 93.7069737040122 164.8071998999515 191.97083246029354 66.54334114367077 313.18544516359304 66.54334114367077 C 434.40005786689255 66.54334114367077 532.6639166231739 164.8071998999515 532.6639166231739 286.0218126032503 Z" stroke-opacity="0.8" stroke-linecap="round" stroke-linejoin="round" stroke-miterlimit="10" stroke-width="2.5"/><path fill="rgb(0,0,0)" stroke="none" paint-order="stroke fill markers" d=" M 331.0145093422037 261.8945568431151 C 326.5882536426501 258.6237332681989 321.3475309126443 256.63354313053065 315.86590565860695 256.14180036204357 L 313.18544516359304 286.0218126032503 Z" fill-opacity="0.09803921568627451"/><path fill="none" stroke="rgb(0,0,0)" paint-order="fill stroke markers" d=" M 331.0145093422037 261.8945568431151 C 326.5882536426501 258.6237332681989 321.3475309126443 256.63354313053065 315.86590565860695 256.14180036204357 L 313.18544516359304 286.0218126032503 Z" stroke-opacity="0.6" stroke-linecap="round" stroke-linejoin="round" stroke-miterlimit="10" stroke-width="2"/><text fill="rgb(0,0,0)" stroke="none" font-family="geogebra-sans-serif, sans-serif" font-size="16px" font-style="normal" font-weight="normal" text-decoration="normal" x="316" y="274" text-anchor="start" dominant-baseline="alphabetic" fill-opacity="1">31.3°</text><text fill="none" stroke="rgb(255,255,255)" font-family="geogebra-sans-serif, sans-serif" font-size="16px" font-style="normal" font-weight="normal" text-decoration="normal" x="316" y="274" text-anchor="start" dominant-baseline="alphabetic" stroke-opacity="1" stroke-linejoin="bevel" stroke-miterlimit="10" stroke-width="3">31.3°</text><text fill="rgb(0,0,0)" stroke="none" font-family="geogebra-sans-serif, sans-serif" font-size="16px" font-style="normal" font-weight="normal" text-decoration="normal" x="316" y="274" text-anchor="start" dominant-baseline="alphabetic" fill-opacity="1">31.3°</text><path fill="rgb(0,0,0)" stroke="none" paint-order="stroke fill markers" d=" M 329.2013464652938 260.65469007241967 C 320.1385464700439 254.93275964595665 308.7115603874605 254.4804241339856 299.2248232818314 259.4680739460579 L 313.18544516359304 286.0218126032503 Z" fill-opacity="0.09803921568627451"/><path fill="none" stroke="rgb(0,0,0)" paint-order="fill stroke markers" d=" M 329.2013464652938 260.65469007241967 C 320.1385464700439 254.93275964595665 308.7115603874605 254.4804241339856 299.2248232818314 259.4680739460579 L 313.18544516359304 286.0218126032503 Z" stroke-opacity="0.6" stroke-linecap="round" stroke-linejoin="round" stroke-miterlimit="10" stroke-width="2"/><text fill="rgb(0,0,0)" stroke="none" font-family="geogebra-sans-serif, sans-serif" font-size="16px" font-style="normal" font-weight="normal" text-decoration="normal" x="310" y="273" text-anchor="start" dominant-baseline="alphabetic" fill-opacity="1">60°</text><text fill="none" stroke="rgb(255,255,255)" font-family="geogebra-sans-serif, sans-serif" font-size="16px" font-style="normal" font-weight="normal" text-decoration="normal" x="310" y="273" text-anchor="start" dominant-baseline="alphabetic" stroke-opacity="1" stroke-linejoin="bevel" stroke-miterlimit="10" stroke-width="3">60°</text><text fill="rgb(0,0,0)" stroke="none" font-family="geogebra-sans-serif, sans-serif" font-size="16px" font-style="normal" font-weight="normal" text-decoration="normal" x="310" y="273" text-anchor="start" dominant-baseline="alphabetic" fill-opacity="1">60°</text><path fill="none" stroke="rgb(97,97,97)" paint-order="fill stroke markers" d=" M -5 37.11837844132285 L 974 124.941997904225" stroke-opacity="0.8" stroke-linecap="round" stroke-linejoin="round" stroke-miterlimit="10" stroke-width="2.5"/><path fill="none" stroke="rgb(97,97,97)" paint-order="fill stroke markers" d=" M 287.9275518753063 575 L 974 79.49285921994874" stroke-opacity="0.8" stroke-linecap="round" stroke-linejoin="round" stroke-miterlimit="10" stroke-width="2.5"/><path fill="none" stroke="rgb(97,97,97)" paint-order="fill stroke markers" d=" M 301.74628741894367 575 L 324.7054995022682 -5" stroke-opacity="0.8" stroke-linecap="round" stroke-linejoin="round" stroke-miterlimit="10" stroke-width="2.5"/><path fill="none" stroke="rgb(97,97,97)" paint-order="fill stroke markers" d=" M 313.18544516359304 286.0218126032503 L 532.6639166231739 286.0218126032503" stroke-opacity="0.8" stroke-linecap="round" stroke-linejoin="round" stroke-miterlimit="10" stroke-width="2.5"/><path fill="none" stroke="rgb(97,97,97)" paint-order="fill stroke markers" d=" M 313.18544516359304 286.0218126032503 L 332.7955575720412 67.42116547346362" stroke-opacity="0.8" stroke-linecap="round" stroke-linejoin="round" stroke-miterlimit="10" stroke-width="2.5"/><path fill="none" stroke="rgb(97,97,97)" paint-order="fill stroke markers" d=" M 313.18544516359304 286.0218126032503 L 441.68978486769214 463.94717367200616" stroke-opacity="0.8" stroke-linecap="round" stroke-linejoin="round" stroke-miterlimit="10" stroke-width="2.5"/><path fill="none" stroke="rgb(97,97,97)" paint-order="fill stroke markers" d=" M 430.35696305508606 100.43723665676386 L 918.0243503040808 119.92056362630557" stroke-opacity="0.8" stroke-linecap="round" stroke-linejoin="round" stroke-miterlimit="10" stroke-width="2.5"/><path fill="none" stroke="rgb(97,97,97)" paint-order="fill stroke markers" d=" M 211.05024678911894 91.75601353599185 L 313.18544516359304 286.0218126032503" stroke-opacity="0.8" stroke-linecap="round" stroke-linejoin="round" stroke-miterlimit="10" stroke-width="2.5"/><path fill="none" stroke="rgb(97,97,97)" paint-order="fill stroke markers" d=" M 313.18544516359304 286.0218126032503 L 430.35696305508606 100.43723665676386" stroke-opacity="0.8" stroke-linecap="round" stroke-linejoin="round" stroke-miterlimit="10" stroke-width="2.5"/><path fill="none" stroke="rgb(97,97,97)" paint-order="fill stroke markers" d=" M 211.05024678911894 91.75601353599185 L 430.35696305508606 100.43723665676386" stroke-opacity="0.8" stroke-linecap="round" stroke-linejoin="round" stroke-miterlimit="10" stroke-width="2.5"/><path fill="rgb(21,101,192)" stroke="none" paint-order="stroke fill markers" d=" M 318.18544516359304 286.0218126032503 C 318.18544516359304 288.78323635240423 315.946868912747 291.0218126032503 313.18544516359304 291.0218126032503 C 310.4240214144391 291.0218126032503 308.18544516359304 288.78323635240423 308.18544516359304 286.0218126032503 C 308.18544516359304 283.26038885409633 310.4240214144391 281.0218126032503 313.18544516359304 281.0218126032503 C 315.946868912747 281.0218126032503 318.18544516359304 283.26038885409633 318.18544516359304 286.0218126032503 Z" fill-opacity="1"/><path fill="none" stroke="rgb(0,0,0)" paint-order="fill stroke markers" d=" M 318.18544516359304 286.0218126032503 C 318.18544516359304 288.78323635240423 315.946868912747 291.0218126032503 313.18544516359304 291.0218126032503 C 310.4240214144391 291.0218126032503 308.18544516359304 288.78323635240423 308.18544516359304 286.0218126032503 C 308.18544516359304 283.26038885409633 310.4240214144391 281.0218126032503 313.18544516359304 281.0218126032503 C 315.946868912747 281.0218126032503 318.18544516359304 283.26038885409633 318.18544516359304 286.0218126032503 Z" stroke-opacity="1" stroke-linecap="round" stroke-linejoin="round" stroke-miterlimit="10"/><text fill="rgb(21,101,192)" stroke="none" font-family="geogebra-sans-serif, sans-serif" font-size="16px" font-style="normal" font-weight="normal" text-decoration="normal" x="317" y="276" text-anchor="start" dominant-baseline="alphabetic" fill-opacity="1">C</text><text fill="none" stroke="rgb(255,255,255)" font-family="geogebra-sans-serif, sans-serif" font-size="16px" font-style="normal" font-weight="normal" text-decoration="normal" x="317" y="276" text-anchor="start" dominant-baseline="alphabetic" stroke-opacity="1" stroke-linejoin="bevel" stroke-miterlimit="10" stroke-width="3">C</text><text fill="rgb(21,101,192)" stroke="none" font-family="geogebra-sans-serif, sans-serif" font-size="16px" font-style="normal" font-weight="normal" text-decoration="normal" x="317" y="276" text-anchor="start" dominant-baseline="alphabetic" fill-opacity="1">C</text><path fill="rgb(21,101,192)" stroke="none" paint-order="stroke fill markers" d=" M 537.6639166231739 286.0218126032503 C 537.6639166231739 288.78323635240423 535.4253403723279 291.0218126032503 532.6639166231739 291.0218126032503 C 529.9024928740199 291.0218126032503 527.6639166231739 288.78323635240423 527.6639166231739 286.0218126032503 C 527.6639166231739 283.26038885409633 529.9024928740199 281.0218126032503 532.6639166231739 281.0218126032503 C 535.4253403723279 281.0218126032503 537.6639166231739 283.26038885409633 537.6639166231739 286.0218126032503 Z" fill-opacity="1"/><path fill="none" stroke="rgb(0,0,0)" paint-order="fill stroke markers" d=" M 537.6639166231739 286.0218126032503 C 537.6639166231739 288.78323635240423 535.4253403723279 291.0218126032503 532.6639166231739 291.0218126032503 C 529.9024928740199 291.0218126032503 527.6639166231739 288.78323635240423 527.6639166231739 286.0218126032503 C 527.6639166231739 283.26038885409633 529.9024928740199 281.0218126032503 532.6639166231739 281.0218126032503 C 535.4253403723279 281.0218126032503 537.6639166231739 283.26038885409633 537.6639166231739 286.0218126032503 Z" stroke-opacity="1" stroke-linecap="round" stroke-linejoin="round" stroke-miterlimit="10"/><text fill="rgb(21,101,192)" stroke="none" font-family="geogebra-sans-serif, sans-serif" font-size="16px" font-style="normal" font-weight="normal" text-decoration="normal" x="537" y="276" text-anchor="start" dominant-baseline="alphabetic" fill-opacity="1">D</text><text fill="none" stroke="rgb(255,255,255)" font-family="geogebra-sans-serif, sans-serif" font-size="16px" font-style="normal" font-weight="normal" text-decoration="normal" x="537" y="276" text-anchor="start" dominant-baseline="alphabetic" stroke-opacity="1" stroke-linejoin="bevel" stroke-miterlimit="10" stroke-width="3">D</text><text fill="rgb(21,101,192)" stroke="none" font-family="geogebra-sans-serif, sans-serif" font-size="16px" font-style="normal" font-weight="normal" text-decoration="normal" x="537" y="276" text-anchor="start" dominant-baseline="alphabetic" fill-opacity="1">D</text><path fill="rgb(97,97,97)" stroke="none" paint-order="stroke fill markers" d=" M 426.9246808933835 286.0218126032503 C 426.9246808933835 288.23095160257344 425.13381989270664 290.0218126032503 422.9246808933835 290.0218126032503 C 420.7155418940603 290.0218126032503 418.9246808933835 288.23095160257344 418.9246808933835 286.0218126032503 C 418.9246808933835 283.8126736039271 420.7155418940603 282.0218126032503 422.9246808933835 282.0218126032503 C 425.13381989270664 282.0218126032503 426.9246808933835 283.8126736039271 426.9246808933835 286.0218126032503 Z" fill-opacity="1"/><path fill="none" stroke="rgb(0,0,0)" paint-order="fill stroke markers" d=" M 426.9246808933835 286.0218126032503 C 426.9246808933835 288.23095160257344 425.13381989270664 290.0218126032503 422.9246808933835 290.0218126032503 C 420.7155418940603 290.0218126032503 418.9246808933835 288.23095160257344 418.9246808933835 286.0218126032503 C 418.9246808933835 283.8126736039271 420.7155418940603 282.0218126032503 422.9246808933835 282.0218126032503 C 425.13381989270664 282.0218126032503 426.9246808933835 283.8126736039271 426.9246808933835 286.0218126032503 Z" stroke-opacity="1" stroke-linecap="round" stroke-linejoin="round" stroke-miterlimit="10"/><text fill="rgb(97,97,97)" stroke="none" font-family="geogebra-sans-serif, sans-serif" font-size="16px" font-style="normal" font-weight="normal" text-decoration="normal" x="427" y="278" text-anchor="start" dominant-baseline="alphabetic" fill-opacity="1">E</text><text fill="none" stroke="rgb(255,255,255)" font-family="geogebra-sans-serif, sans-serif" font-size="16px" font-style="normal" font-weight="normal" text-decoration="normal" x="427" y="278" text-anchor="start" dominant-baseline="alphabetic" stroke-opacity="1" stroke-linejoin="bevel" stroke-miterlimit="10" stroke-width="3">E</text><text fill="rgb(97,97,97)" stroke="none" font-family="geogebra-sans-serif, sans-serif" font-size="16px" font-style="normal" font-weight="normal" text-decoration="normal" x="427" y="278" text-anchor="start" dominant-baseline="alphabetic" fill-opacity="1">E</text><path fill="rgb(21,101,192)" stroke="none" paint-order="stroke fill markers" d=" M 337.7955575720412 67.42116547346362 C 337.7955575720412 70.18258922261758 335.55698132119517 72.42116547346362 332.7955575720412 72.42116547346362 C 330.03413382288727 72.42116547346362 327.7955575720412 70.18258922261758 327.7955575720412 67.42116547346362 C 327.7955575720412 64.65974172430965 330.03413382288727 62.42116547346362 332.7955575720412 62.42116547346362 C 335.55698132119517 62.42116547346362 337.7955575720412 64.65974172430965 337.7955575720412 67.42116547346362 Z" fill-opacity="1"/><path fill="none" stroke="rgb(0,0,0)" paint-order="fill stroke markers" d=" M 337.7955575720412 67.42116547346362 C 337.7955575720412 70.18258922261758 335.55698132119517 72.42116547346362 332.7955575720412 72.42116547346362 C 330.03413382288727 72.42116547346362 327.7955575720412 70.18258922261758 327.7955575720412 67.42116547346362 C 327.7955575720412 64.65974172430965 330.03413382288727 62.42116547346362 332.7955575720412 62.42116547346362 C 335.55698132119517 62.42116547346362 337.7955575720412 64.65974172430965 337.7955575720412 67.42116547346362 Z" stroke-opacity="1" stroke-linecap="round" stroke-linejoin="round" stroke-miterlimit="10"/><text fill="rgb(21,101,192)" stroke="none" font-family="geogebra-sans-serif, sans-serif" font-size="16px" font-style="normal" font-weight="normal" text-decoration="normal" x="337" y="57" text-anchor="start" dominant-baseline="alphabetic" fill-opacity="1">A</text><text fill="none" stroke="rgb(255,255,255)" font-family="geogebra-sans-serif, sans-serif" font-size="16px" font-style="normal" font-weight="normal" text-decoration="normal" x="337" y="57" text-anchor="start" dominant-baseline="alphabetic" stroke-opacity="1" stroke-linejoin="bevel" stroke-miterlimit="10" stroke-width="3">A</text><text fill="rgb(21,101,192)" stroke="none" font-family="geogebra-sans-serif, sans-serif" font-size="16px" font-style="normal" font-weight="normal" text-decoration="normal" x="337" y="57" text-anchor="start" dominant-baseline="alphabetic" fill-opacity="1">A</text><path fill="rgb(21,101,192)" stroke="none" paint-order="stroke fill markers" d=" M 446.68978486769214 463.94717367200616 C 446.68978486769214 466.7085974211601 444.4512086168461 468.94717367200616 441.68978486769214 468.94717367200616 C 438.9283611185382 468.94717367200616 436.68978486769214 466.7085974211601 436.68978486769214 463.94717367200616 C 436.68978486769214 461.1857499228522 438.9283611185382 458.94717367200616 441.68978486769214 458.94717367200616 C 444.4512086168461 458.94717367200616 446.68978486769214 461.1857499228522 446.68978486769214 463.94717367200616 Z" fill-opacity="1"/><path fill="none" stroke="rgb(0,0,0)" paint-order="fill stroke markers" d=" M 446.68978486769214 463.94717367200616 C 446.68978486769214 466.7085974211601 444.4512086168461 468.94717367200616 441.68978486769214 468.94717367200616 C 438.9283611185382 468.94717367200616 436.68978486769214 466.7085974211601 436.68978486769214 463.94717367200616 C 436.68978486769214 461.1857499228522 438.9283611185382 458.94717367200616 441.68978486769214 458.94717367200616 C 444.4512086168461 458.94717367200616 446.68978486769214 461.1857499228522 446.68978486769214 463.94717367200616 Z" stroke-opacity="1" stroke-linecap="round" stroke-linejoin="round" stroke-miterlimit="10"/><text fill="rgb(21,101,192)" stroke="none" font-family="geogebra-sans-serif, sans-serif" font-size="16px" font-style="normal" font-weight="normal" text-decoration="normal" x="446" y="454" text-anchor="start" dominant-baseline="alphabetic" fill-opacity="1">B</text><text fill="none" stroke="rgb(255,255,255)" font-family="geogebra-sans-serif, sans-serif" font-size="16px" font-style="normal" font-weight="normal" text-decoration="normal" x="446" y="454" text-anchor="start" dominant-baseline="alphabetic" stroke-opacity="1" stroke-linejoin="bevel" stroke-miterlimit="10" stroke-width="3">B</text><text fill="rgb(21,101,192)" stroke="none" font-family="geogebra-sans-serif, sans-serif" font-size="16px" font-style="normal" font-weight="normal" text-decoration="normal" x="446" y="454" text-anchor="start" dominant-baseline="alphabetic" fill-opacity="1">B</text><path fill="rgb(97,97,97)" stroke="none" paint-order="stroke fill markers" d=" M 922.0243503040808 119.92056362630557 C 922.0243503040808 122.12970262562874 920.233489303404 123.92056362630557 918.0243503040808 123.92056362630557 C 915.8152113047577 123.92056362630557 914.0243503040808 122.12970262562874 914.0243503040808 119.92056362630557 C 914.0243503040808 117.71142462698239 915.8152113047577 115.92056362630557 918.0243503040808 115.92056362630557 C 920.233489303404 115.92056362630557 922.0243503040808 117.71142462698239 922.0243503040808 119.92056362630557 Z" fill-opacity="1"/><path fill="none" stroke="rgb(0,0,0)" paint-order="fill stroke markers" d=" M 922.0243503040808 119.92056362630557 C 922.0243503040808 122.12970262562874 920.233489303404 123.92056362630557 918.0243503040808 123.92056362630557 C 915.8152113047577 123.92056362630557 914.0243503040808 122.12970262562874 914.0243503040808 119.92056362630557 C 914.0243503040808 117.71142462698239 915.8152113047577 115.92056362630557 918.0243503040808 115.92056362630557 C 920.233489303404 115.92056362630557 922.0243503040808 117.71142462698239 922.0243503040808 119.92056362630557 Z" stroke-opacity="1" stroke-linecap="round" stroke-linejoin="round" stroke-miterlimit="10"/><text fill="rgb(97,97,97)" stroke="none" font-family="geogebra-sans-serif, sans-serif" font-size="16px" font-style="normal" font-weight="normal" text-decoration="normal" x="922" y="112" text-anchor="start" dominant-baseline="alphabetic" fill-opacity="1">F</text><text fill="none" stroke="rgb(255,255,255)" font-family="geogebra-sans-serif, sans-serif" font-size="16px" font-style="normal" font-weight="normal" text-decoration="normal" x="922" y="112" text-anchor="start" dominant-baseline="alphabetic" stroke-opacity="1" stroke-linejoin="bevel" stroke-miterlimit="10" stroke-width="3">F</text><text fill="rgb(97,97,97)" stroke="none" font-family="geogebra-sans-serif, sans-serif" font-size="16px" font-style="normal" font-weight="normal" text-decoration="normal" x="922" y="112" text-anchor="start" dominant-baseline="alphabetic" fill-opacity="1">F</text><path fill="rgb(21,101,192)" stroke="none" paint-order="stroke fill markers" d=" M 435.35696305508606 100.43723665676386 C 435.35696305508606 103.19866040591782 433.11838680424 105.43723665676386 430.35696305508606 105.43723665676386 C 427.5955393059321 105.43723665676386 425.35696305508606 103.19866040591782 425.35696305508606 100.43723665676386 C 425.35696305508606 97.6758129076099 427.5955393059321 95.43723665676386 430.35696305508606 95.43723665676386 C 433.11838680424 95.43723665676386 435.35696305508606 97.6758129076099 435.35696305508606 100.43723665676386 Z" fill-opacity="1"/><path fill="none" stroke="rgb(0,0,0)" paint-order="fill stroke markers" d=" M 435.35696305508606 100.43723665676386 C 435.35696305508606 103.19866040591782 433.11838680424 105.43723665676386 430.35696305508606 105.43723665676386 C 427.5955393059321 105.43723665676386 425.35696305508606 103.19866040591782 425.35696305508606 100.43723665676386 C 425.35696305508606 97.6758129076099 427.5955393059321 95.43723665676386 430.35696305508606 95.43723665676386 C 433.11838680424 95.43723665676386 435.35696305508606 97.6758129076099 435.35696305508606 100.43723665676386 Z" stroke-opacity="1" stroke-linecap="round" stroke-linejoin="round" stroke-miterlimit="10"/><text fill="rgb(21,101,192)" stroke="none" font-family="geogebra-sans-serif, sans-serif" font-size="16px" font-style="normal" font-weight="normal" text-decoration="normal" x="434" y="90" text-anchor="start" dominant-baseline="alphabetic" fill-opacity="1">H</text><text fill="none" stroke="rgb(255,255,255)" font-family="geogebra-sans-serif, sans-serif" font-size="16px" font-style="normal" font-weight="normal" text-decoration="normal" x="434" y="90" text-anchor="start" dominant-baseline="alphabetic" stroke-opacity="1" stroke-linejoin="bevel" stroke-miterlimit="10" stroke-width="3">H</text><text fill="rgb(21,101,192)" stroke="none" font-family="geogebra-sans-serif, sans-serif" font-size="16px" font-style="normal" font-weight="normal" text-decoration="normal" x="434" y="90" text-anchor="start" dominant-baseline="alphabetic" fill-opacity="1">H</text><path fill="rgb(21,101,192)" stroke="none" paint-order="stroke fill markers" d=" M 216.05024678911894 91.75601353599185 C 216.05024678911894 94.51743728514582 213.81167053827292 96.75601353599185 211.05024678911894 96.75601353599185 C 208.28882303996497 96.75601353599185 206.05024678911894 94.51743728514582 206.05024678911894 91.75601353599185 C 206.05024678911894 88.99458978683789 208.28882303996497 86.75601353599185 211.05024678911894 86.75601353599185 C 213.81167053827292 86.75601353599185 216.05024678911894 88.99458978683789 216.05024678911894 91.75601353599185 Z" fill-opacity="1"/><path fill="none" stroke="rgb(0,0,0)" paint-order="fill stroke markers" d=" M 216.05024678911894 91.75601353599185 C 216.05024678911894 94.51743728514582 213.81167053827292 96.75601353599185 211.05024678911894 96.75601353599185 C 208.28882303996497 96.75601353599185 206.05024678911894 94.51743728514582 206.05024678911894 91.75601353599185 C 206.05024678911894 88.99458978683789 208.28882303996497 86.75601353599185 211.05024678911894 86.75601353599185 C 213.81167053827292 86.75601353599185 216.05024678911894 88.99458978683789 216.05024678911894 91.75601353599185 Z" stroke-opacity="1" stroke-linecap="round" stroke-linejoin="round" stroke-miterlimit="10"/><text fill="rgb(21,101,192)" stroke="none" font-family="geogebra-sans-serif, sans-serif" font-size="16px" font-style="normal" font-weight="normal" text-decoration="normal" x="215" y="82" text-anchor="start" dominant-baseline="alphabetic" fill-opacity="1">H'</text><text fill="none" stroke="rgb(255,255,255)" font-family="geogebra-sans-serif, sans-serif" font-size="16px" font-style="normal" font-weight="normal" text-decoration="normal" x="215" y="82" text-anchor="start" dominant-baseline="alphabetic" stroke-opacity="1" stroke-linejoin="bevel" stroke-miterlimit="10" stroke-width="3">H'</text><text fill="rgb(21,101,192)" stroke="none" font-family="geogebra-sans-serif, sans-serif" font-size="16px" font-style="normal" font-weight="normal" text-decoration="normal" x="215" y="82" text-anchor="start" dominant-baseline="alphabetic" fill-opacity="1">H'</text></g></g></svg>