<svg xmlns="http://www.w3.org/2000/svg" version="1.1" xmlns:xlink="http://www.w3.org/1999/xlink" xmlns:svgjs="http://svgjs.dev/svgjs" width="1350" height="624" preserveAspectRatio="none" viewBox="0 0 1350 624"><g mask="url(&quot;#SvgjsMask1377&quot;)" fill="none"><rect width="1350" height="624" x="0" y="0" fill="rgba(0, 0, 0, 1)"></rect><path d="M0 -96L83.14 -48L83.14 48L0 96L-83.14 48L-83.14 -48zM83.14 48L166.28 96L166.28 192L83.14 240L0 192L0 96zM0 192L83.14 240L83.14 336L0 384L-83.14 336L-83.14 240zM83.14 336L166.28 384L166.28 480L83.14 528L0 480L0 384zM0 480L83.14 528L83.14 624L0 672L-83.14 624L-83.14 528zM166.28 -96L249.42 -48L249.42 48L166.28 96L83.14 48L83.14 -48zM249.42 48L332.56 96L332.56 192L249.42 240L166.28 192L166.28 96zM166.28 192L249.42 240L249.42 336L166.28 384L83.14 336L83.14 240zM249.42 336L332.56 384L332.56 480L249.42 528L166.28 480L166.28 384zM166.28 480L249.42 528L249.42 624L166.28 672L83.14 624L83.14 528zM332.56 -96L415.7 -48L415.7 48L332.56 96L249.42 48L249.42 -48zM415.7 48L498.84 96L498.84 192L415.7 240L332.56 192L332.56 96zM332.56 192L415.7 240L415.7 336L332.56 384L249.42 336L249.42 240zM415.7 336L498.84 384L498.84 480L415.7 528L332.56 480L332.56 384zM332.56 480L415.7 528L415.7 624L332.56 672L249.42 624L249.42 528zM498.84 -96L581.99 -48L581.99 48L498.84 96L415.7 48L415.7 -48zM581.99 48L665.13 96L665.13 192L581.99 240L498.84 192L498.84 96zM498.84 192L581.99 240L581.99 336L498.84 384L415.7 336L415.7 240zM581.99 336L665.13 384L665.13 480L581.99 528L498.84 480L498.84 384zM498.84 480L581.99 528L581.99 624L498.84 672L415.7 624L415.7 528zM665.13 -96L748.27 -48L748.27 48L665.13 96L581.99 48L581.99 -48zM748.27 48L831.41 96L831.41 192L748.27 240L665.13 192L665.13 96zM665.13 192L748.27 240L748.27 336L665.13 384L581.99 336L581.99 240zM748.27 336L831.41 384L831.41 480L748.27 528L665.13 480L665.13 384zM665.13 480L748.27 528L748.27 624L665.13 672L581.99 624L581.99 528zM831.41 -96L914.55 -48L914.55 48L831.41 96L748.27 48L748.27 -48zM914.55 48L997.69 96L997.69 192L914.55 240L831.41 192L831.41 96zM831.41 192L914.55 240L914.55 336L831.41 384L748.27 336L748.27 240zM914.55 336L997.69 384L997.69 480L914.55 528L831.41 480L831.41 384zM831.41 480L914.55 528L914.55 624L831.41 672L748.27 624L748.27 528zM997.69 -96L1080.83 -48L1080.83 48L997.69 96L914.55 48L914.55 -48zM1080.83 48L1163.97 96L1163.97 192L1080.83 240L997.69 192L997.69 96zM997.69 192L1080.83 240L1080.83 336L997.69 384L914.55 336L914.55 240zM1080.83 336L1163.97 384L1163.97 480L1080.83 528L997.69 480L997.69 384zM997.69 480L1080.83 528L1080.83 624L997.69 672L914.55 624L914.55 528zM1163.97 -96L1247.11 -48L1247.11 48L1163.97 96L1080.83 48L1080.83 -48zM1247.11 48L1330.25 96L1330.25 192L1247.11 240L1163.97 192L1163.97 96zM1163.97 192L1247.11 240L1247.11 336L1163.97 384L1080.83 336L1080.83 240zM1247.11 336L1330.25 384L1330.25 480L1247.11 528L1163.97 480L1163.97 384zM1163.97 480L1247.11 528L1247.11 624L1163.97 672L1080.83 624L1080.83 528zM1330.25 -96L1413.39 -48L1413.39 48L1330.25 96L1247.11 48L1247.11 -48zM1413.39 48L1496.53 96L1496.53 192L1413.39 240L1330.25 192L1330.25 96zM1330.25 192L1413.39 240L1413.39 336L1330.25 384L1247.11 336L1247.11 240zM1413.39 336L1496.53 384L1496.53 480L1413.39 528L1330.25 480L1330.25 384zM1330.25 480L1413.39 528L1413.39 624L1330.25 672L1247.11 624L1247.11 528z" stroke="rgba(0, 0, 0, 1)" stroke-width="2"></path><path d="M-9.6 -96 a9.6 9.6 0 1 0 19.2 0 a9.6 9.6 0 1 0 -19.2 0zM73.54 -48 a9.6 9.6 0 1 0 19.2 0 a9.6 9.6 0 1 0 -19.2 0zM73.54 48 a9.6 9.6 0 1 0 19.2 0 a9.6 9.6 0 1 0 -19.2 0zM-9.6 96 a9.6 9.6 0 1 0 19.2 0 a9.6 9.6 0 1 0 -19.2 0zM-92.74 48 a9.6 9.6 0 1 0 19.2 0 a9.6 9.6 0 1 0 -19.2 0zM-92.74 -48 a9.6 9.6 0 1 0 19.2 0 a9.6 9.6 0 1 0 -19.2 0zM156.68 96 a9.6 9.6 0 1 0 19.2 0 a9.6 9.6 0 1 0 -19.2 0zM156.68 192 a9.6 9.6 0 1 0 19.2 0 a9.6 9.6 0 1 0 -19.2 0zM73.54 240 a9.6 9.6 0 1 0 19.2 0 a9.6 9.6 0 1 0 -19.2 0zM-9.6 192 a9.6 9.6 0 1 0 19.2 0 a9.6 9.6 0 1 0 -19.2 0zM73.54 336 a9.6 9.6 0 1 0 19.2 0 a9.6 9.6 0 1 0 -19.2 0zM-9.6 384 a9.6 9.6 0 1 0 19.2 0 a9.6 9.6 0 1 0 -19.2 0zM-92.74 336 a9.6 9.6 0 1 0 19.2 0 a9.6 9.6 0 1 0 -19.2 0zM-92.74 240 a9.6 9.6 0 1 0 19.2 0 a9.6 9.6 0 1 0 -19.2 0zM156.68 384 a9.6 9.6 0 1 0 19.2 0 a9.6 9.6 0 1 0 -19.2 0zM156.68 480 a9.6 9.6 0 1 0 19.2 0 a9.6 9.6 0 1 0 -19.2 0zM73.54 528 a9.6 9.6 0 1 0 19.2 0 a9.6 9.6 0 1 0 -19.2 0zM-9.6 480 a9.6 9.6 0 1 0 19.2 0 a9.6 9.6 0 1 0 -19.2 0zM73.54 624 a9.6 9.6 0 1 0 19.2 0 a9.6 9.6 0 1 0 -19.2 0zM-9.6 672 a9.6 9.6 0 1 0 19.2 0 a9.6 9.6 0 1 0 -19.2 0zM-92.74 624 a9.6 9.6 0 1 0 19.2 0 a9.6 9.6 0 1 0 -19.2 0zM-92.74 528 a9.6 9.6 0 1 0 19.2 0 a9.6 9.6 0 1 0 -19.2 0zM156.68 -96 a9.6 9.6 0 1 0 19.2 0 a9.6 9.6 0 1 0 -19.2 0zM239.82 -48 a9.6 9.6 0 1 0 19.2 0 a9.6 9.6 0 1 0 -19.2 0zM239.82 48 a9.6 9.6 0 1 0 19.2 0 a9.6 9.6 0 1 0 -19.2 0zM322.96 96 a9.6 9.6 0 1 0 19.2 0 a9.6 9.6 0 1 0 -19.2 0zM322.96 192 a9.6 9.6 0 1 0 19.2 0 a9.6 9.6 0 1 0 -19.2 0zM239.82 240 a9.6 9.6 0 1 0 19.2 0 a9.6 9.6 0 1 0 -19.2 0zM239.82 336 a9.6 9.6 0 1 0 19.2 0 a9.6 9.6 0 1 0 -19.2 0zM322.96 384 a9.6 9.6 0 1 0 19.2 0 a9.6 9.6 0 1 0 -19.2 0zM322.96 480 a9.6 9.6 0 1 0 19.2 0 a9.6 9.6 0 1 0 -19.2 0zM239.82 528 a9.6 9.6 0 1 0 19.2 0 a9.6 9.6 0 1 0 -19.2 0zM239.82 624 a9.6 9.6 0 1 0 19.2 0 a9.6 9.6 0 1 0 -19.2 0zM156.68 672 a9.6 9.6 0 1 0 19.2 0 a9.6 9.6 0 1 0 -19.2 0zM322.96 -96 a9.6 9.6 0 1 0 19.2 0 a9.6 9.6 0 1 0 -19.2 0zM406.1 -48 a9.6 9.6 0 1 0 19.2 0 a9.6 9.6 0 1 0 -19.2 0zM406.1 48 a9.6 9.6 0 1 0 19.2 0 a9.6 9.6 0 1 0 -19.2 0zM489.24 96 a9.6 9.6 0 1 0 19.2 0 a9.6 9.6 0 1 0 -19.2 0zM489.24 192 a9.6 9.6 0 1 0 19.2 0 a9.6 9.6 0 1 0 -19.2 0zM406.1 240 a9.6 9.6 0 1 0 19.2 0 a9.6 9.6 0 1 0 -19.2 0zM406.1 336 a9.6 9.6 0 1 0 19.2 0 a9.6 9.6 0 1 0 -19.2 0zM489.24 384 a9.6 9.6 0 1 0 19.2 0 a9.6 9.6 0 1 0 -19.2 0zM489.24 480 a9.6 9.6 0 1 0 19.2 0 a9.6 9.6 0 1 0 -19.2 0zM406.1 528 a9.6 9.6 0 1 0 19.2 0 a9.6 9.6 0 1 0 -19.2 0zM406.1 624 a9.6 9.6 0 1 0 19.2 0 a9.6 9.6 0 1 0 -19.2 0zM322.96 672 a9.6 9.6 0 1 0 19.2 0 a9.6 9.6 0 1 0 -19.2 0zM489.24 -96 a9.6 9.6 0 1 0 19.2 0 a9.6 9.6 0 1 0 -19.2 0zM572.39 -48 a9.6 9.6 0 1 0 19.2 0 a9.6 9.6 0 1 0 -19.2 0zM572.39 48 a9.6 9.6 0 1 0 19.2 0 a9.6 9.6 0 1 0 -19.2 0zM655.53 96 a9.6 9.6 0 1 0 19.2 0 a9.6 9.6 0 1 0 -19.2 0zM655.53 192 a9.6 9.6 0 1 0 19.2 0 a9.6 9.6 0 1 0 -19.2 0zM572.39 240 a9.6 9.6 0 1 0 19.2 0 a9.6 9.6 0 1 0 -19.2 0zM572.39 336 a9.6 9.6 0 1 0 19.2 0 a9.6 9.6 0 1 0 -19.2 0zM655.53 384 a9.6 9.6 0 1 0 19.2 0 a9.6 9.6 0 1 0 -19.2 0zM655.53 480 a9.6 9.6 0 1 0 19.2 0 a9.6 9.6 0 1 0 -19.2 0zM572.39 528 a9.6 9.6 0 1 0 19.2 0 a9.6 9.6 0 1 0 -19.2 0zM572.39 624 a9.6 9.6 0 1 0 19.2 0 a9.6 9.6 0 1 0 -19.2 0zM489.24 672 a9.6 9.6 0 1 0 19.2 0 a9.6 9.6 0 1 0 -19.2 0zM655.53 -96 a9.6 9.6 0 1 0 19.2 0 a9.6 9.6 0 1 0 -19.2 0zM738.67 -48 a9.6 9.6 0 1 0 19.2 0 a9.6 9.6 0 1 0 -19.2 0zM738.67 48 a9.6 9.6 0 1 0 19.2 0 a9.6 9.6 0 1 0 -19.2 0zM821.81 96 a9.6 9.6 0 1 0 19.2 0 a9.6 9.6 0 1 0 -19.2 0zM821.81 192 a9.6 9.6 0 1 0 19.2 0 a9.6 9.6 0 1 0 -19.2 0zM738.67 240 a9.6 9.6 0 1 0 19.2 0 a9.6 9.6 0 1 0 -19.2 0zM738.67 336 a9.6 9.6 0 1 0 19.2 0 a9.6 9.6 0 1 0 -19.2 0zM821.81 384 a9.6 9.6 0 1 0 19.2 0 a9.6 9.6 0 1 0 -19.2 0zM821.81 480 a9.6 9.6 0 1 0 19.2 0 a9.6 9.6 0 1 0 -19.2 0zM738.67 528 a9.6 9.6 0 1 0 19.2 0 a9.6 9.6 0 1 0 -19.2 0zM738.67 624 a9.6 9.6 0 1 0 19.2 0 a9.6 9.6 0 1 0 -19.2 0zM655.53 672 a9.6 9.6 0 1 0 19.2 0 a9.6 9.6 0 1 0 -19.2 0zM821.81 -96 a9.6 9.6 0 1 0 19.2 0 a9.6 9.6 0 1 0 -19.2 0zM904.95 -48 a9.6 9.6 0 1 0 19.2 0 a9.6 9.6 0 1 0 -19.2 0zM904.95 48 a9.6 9.6 0 1 0 19.2 0 a9.6 9.6 0 1 0 -19.2 0zM988.09 96 a9.6 9.6 0 1 0 19.2 0 a9.6 9.6 0 1 0 -19.2 0zM988.09 192 a9.6 9.6 0 1 0 19.2 0 a9.6 9.6 0 1 0 -19.2 0zM904.95 240 a9.6 9.6 0 1 0 19.2 0 a9.6 9.6 0 1 0 -19.2 0zM904.95 336 a9.6 9.6 0 1 0 19.2 0 a9.6 9.6 0 1 0 -19.2 0zM988.09 384 a9.6 9.6 0 1 0 19.2 0 a9.6 9.6 0 1 0 -19.2 0zM988.09 480 a9.6 9.6 0 1 0 19.2 0 a9.6 9.6 0 1 0 -19.2 0zM904.95 528 a9.6 9.6 0 1 0 19.2 0 a9.6 9.6 0 1 0 -19.2 0zM904.95 624 a9.6 9.6 0 1 0 19.2 0 a9.6 9.6 0 1 0 -19.2 0zM821.81 672 a9.6 9.6 0 1 0 19.2 0 a9.6 9.6 0 1 0 -19.2 0zM988.09 -96 a9.6 9.6 0 1 0 19.2 0 a9.6 9.6 0 1 0 -19.2 0zM1071.23 -48 a9.6 9.6 0 1 0 19.2 0 a9.6 9.6 0 1 0 -19.2 0zM1071.23 48 a9.6 9.6 0 1 0 19.2 0 a9.6 9.6 0 1 0 -19.2 0zM1154.37 96 a9.6 9.6 0 1 0 19.2 0 a9.6 9.6 0 1 0 -19.2 0zM1154.37 192 a9.6 9.6 0 1 0 19.2 0 a9.6 9.6 0 1 0 -19.2 0zM1071.23 240 a9.6 9.6 0 1 0 19.2 0 a9.6 9.6 0 1 0 -19.2 0zM1071.23 336 a9.6 9.6 0 1 0 19.2 0 a9.6 9.6 0 1 0 -19.2 0zM1154.37 384 a9.6 9.6 0 1 0 19.2 0 a9.6 9.6 0 1 0 -19.2 0zM1154.37 480 a9.6 9.6 0 1 0 19.2 0 a9.6 9.6 0 1 0 -19.2 0zM1071.23 528 a9.6 9.6 0 1 0 19.2 0 a9.6 9.6 0 1 0 -19.2 0zM1071.23 624 a9.6 9.6 0 1 0 19.2 0 a9.6 9.6 0 1 0 -19.2 0zM988.09 672 a9.6 9.6 0 1 0 19.2 0 a9.6 9.6 0 1 0 -19.2 0zM1154.37 -96 a9.6 9.6 0 1 0 19.2 0 a9.6 9.6 0 1 0 -19.2 0zM1237.51 -48 a9.6 9.6 0 1 0 19.2 0 a9.6 9.6 0 1 0 -19.2 0zM1237.51 48 a9.6 9.6 0 1 0 19.2 0 a9.6 9.6 0 1 0 -19.2 0zM1320.65 96 a9.6 9.6 0 1 0 19.2 0 a9.6 9.6 0 1 0 -19.2 0zM1320.65 192 a9.6 9.6 0 1 0 19.2 0 a9.6 9.6 0 1 0 -19.2 0zM1237.51 240 a9.6 9.6 0 1 0 19.2 0 a9.6 9.6 0 1 0 -19.2 0zM1237.51 336 a9.6 9.6 0 1 0 19.2 0 a9.6 9.6 0 1 0 -19.2 0zM1320.65 384 a9.6 9.6 0 1 0 19.2 0 a9.6 9.6 0 1 0 -19.2 0zM1320.65 480 a9.6 9.6 0 1 0 19.2 0 a9.6 9.6 0 1 0 -19.2 0zM1237.51 528 a9.6 9.6 0 1 0 19.2 0 a9.6 9.6 0 1 0 -19.2 0zM1237.51 624 a9.6 9.6 0 1 0 19.2 0 a9.6 9.6 0 1 0 -19.2 0zM1154.37 672 a9.6 9.6 0 1 0 19.2 0 a9.6 9.6 0 1 0 -19.2 0zM1320.65 -96 a9.6 9.6 0 1 0 19.2 0 a9.6 9.6 0 1 0 -19.2 0zM1403.79 -48 a9.6 9.6 0 1 0 19.2 0 a9.6 9.6 0 1 0 -19.2 0zM1403.79 48 a9.6 9.6 0 1 0 19.2 0 a9.6 9.6 0 1 0 -19.2 0zM1486.93 96 a9.6 9.6 0 1 0 19.2 0 a9.6 9.6 0 1 0 -19.2 0zM1486.93 192 a9.6 9.6 0 1 0 19.2 0 a9.6 9.6 0 1 0 -19.2 0zM1403.79 240 a9.6 9.6 0 1 0 19.2 0 a9.6 9.6 0 1 0 -19.2 0zM1403.79 336 a9.6 9.6 0 1 0 19.2 0 a9.6 9.6 0 1 0 -19.2 0zM1486.93 384 a9.6 9.6 0 1 0 19.2 0 a9.6 9.6 0 1 0 -19.2 0zM1486.93 480 a9.6 9.6 0 1 0 19.2 0 a9.6 9.6 0 1 0 -19.2 0zM1403.79 528 a9.6 9.6 0 1 0 19.2 0 a9.6 9.6 0 1 0 -19.2 0zM1403.79 624 a9.6 9.6 0 1 0 19.2 0 a9.6 9.6 0 1 0 -19.2 0zM1320.65 672 a9.6 9.6 0 1 0 19.2 0 a9.6 9.6 0 1 0 -19.2 0z" fill="rgba(0, 0, 0, 1)"></path><path d="M0 -16L13.86 -8L13.86 8L0 16L-13.86 8L-13.86 -8zM13.86 8L27.71 16L27.71 32L13.86 40L0 32L0 16zM0 32L13.86 40L13.86 56L0 64L-13.86 56L-13.86 40zM13.86 56L27.71 64L27.71 80L13.86 88L0 80L0 64zM0 80L13.86 88L13.86 104L0 112L-13.86 104L-13.86 88zM13.86 104L27.71 112L27.71 128L13.86 136L0 128L0 112zM0 128L13.86 136L13.86 152L0 160L-13.86 152L-13.86 136zM13.86 152L27.71 160L27.71 176L13.86 184L0 176L0 160zM0 176L13.86 184L13.86 200L0 208L-13.86 200L-13.86 184zM13.86 200L27.71 208L27.71 224L13.86 232L0 224L0 208zM0 224L13.86 232L13.86 248L0 256L-13.86 248L-13.86 232zM13.86 248L27.71 256L27.71 272L13.86 280L0 272L0 256zM0 272L13.86 280L13.86 296L0 304L-13.86 296L-13.86 280zM13.86 296L27.71 304L27.71 320L13.86 328L0 320L0 304zM0 320L13.86 328L13.86 344L0 352L-13.86 344L-13.86 328zM13.86 344L27.71 352L27.71 368L13.86 376L0 368L0 352zM0 368L13.86 376L13.86 392L0 400L-13.86 392L-13.86 376zM13.86 392L27.71 400L27.71 416L13.86 424L0 416L0 400zM0 416L13.86 424L13.86 440L0 448L-13.86 440L-13.86 424zM13.86 440L27.71 448L27.71 464L13.86 472L0 464L0 448zM0 464L13.86 472L13.86 488L0 496L-13.86 488L-13.86 472zM13.86 488L27.71 496L27.71 512L13.86 520L0 512L0 496zM0 512L13.86 520L13.86 536L0 544L-13.86 536L-13.86 520zM13.86 536L27.71 544L27.71 560L13.86 568L0 560L0 544zM0 560L13.86 568L13.86 584L0 592L-13.86 584L-13.86 568zM13.86 584L27.71 592L27.71 608L13.86 616L0 608L0 592zM0 608L13.86 616L13.86 632L0 640L-13.86 632L-13.86 616zM27.71 -16L41.57 -8L41.57 8L27.71 16L13.86 8L13.86 -8zM41.57 8L55.43 16L55.43 32L41.57 40L27.71 32L27.71 16zM27.71 32L41.57 40L41.57 56L27.71 64L13.86 56L13.86 40zM41.57 56L55.43 64L55.43 80L41.57 88L27.71 80L27.71 64zM27.71 80L41.57 88L41.57 104L27.71 112L13.86 104L13.86 88zM41.57 104L55.43 112L55.43 128L41.57 136L27.71 128L27.71 112zM27.71 128L41.57 136L41.57 152L27.71 160L13.86 152L13.86 136zM41.57 152L55.43 160L55.43 176L41.57 184L27.71 176L27.71 160zM27.71 176L41.57 184L41.57 200L27.71 208L13.86 200L13.86 184zM41.57 200L55.43 208L55.43 224L41.57 232L27.71 224L27.71 208zM27.71 224L41.57 232L41.57 248L27.71 256L13.86 248L13.86 232zM41.57 248L55.43 256L55.43 272L41.57 280L27.71 272L27.71 256zM27.71 272L41.57 280L41.57 296L27.71 304L13.86 296L13.86 280zM41.57 296L55.43 304L55.43 320L41.57 328L27.71 320L27.71 304zM27.71 320L41.57 328L41.57 344L27.71 352L13.86 344L13.86 328zM41.57 344L55.43 352L55.43 368L41.57 376L27.71 368L27.71 352zM27.71 368L41.57 376L41.57 392L27.71 400L13.86 392L13.86 376zM41.57 392L55.43 400L55.43 416L41.57 424L27.71 416L27.71 400zM27.71 416L41.57 424L41.57 440L27.71 448L13.86 440L13.86 424zM41.57 440L55.43 448L55.43 464L41.57 472L27.71 464L27.71 448zM27.71 464L41.57 472L41.57 488L27.71 496L13.86 488L13.86 472zM41.57 488L55.43 496L55.43 512L41.57 520L27.71 512L27.71 496zM27.71 512L41.57 520L41.57 536L27.71 544L13.86 536L13.86 520zM41.57 536L55.43 544L55.43 560L41.57 568L27.71 560L27.71 544zM27.71 560L41.57 568L41.57 584L27.71 592L13.86 584L13.86 568zM41.57 584L55.43 592L55.43 608L41.57 616L27.71 608L27.71 592zM27.71 608L41.57 616L41.57 632L27.71 640L13.86 632L13.86 616zM55.43 -16L69.28 -8L69.28 8L55.43 16L41.57 8L41.57 -8zM69.28 8L83.14 16L83.14 32L69.28 40L55.43 32L55.43 16zM55.43 32L69.28 40L69.28 56L55.43 64L41.57 56L41.57 40zM69.28 56L83.14 64L83.14 80L69.28 88L55.43 80L55.43 64zM55.43 80L69.28 88L69.28 104L55.43 112L41.57 104L41.57 88zM69.28 104L83.14 112L83.14 128L69.28 136L55.43 128L55.43 112zM55.43 128L69.28 136L69.28 152L55.43 160L41.57 152L41.57 136zM69.28 152L83.14 160L83.14 176L69.28 184L55.43 176L55.43 160zM55.43 176L69.28 184L69.28 200L55.43 208L41.57 200L41.57 184zM69.28 200L83.14 208L83.14 224L69.28 232L55.43 224L55.43 208zM55.43 224L69.28 232L69.28 248L55.43 256L41.57 248L41.57 232zM69.28 248L83.14 256L83.14 272L69.28 280L55.43 272L55.43 256zM55.43 272L69.28 280L69.28 296L55.43 304L41.57 296L41.57 280zM69.28 296L83.14 304L83.14 320L69.28 328L55.43 320L55.43 304zM55.43 320L69.28 328L69.28 344L55.43 352L41.57 344L41.57 328zM69.28 344L83.14 352L83.14 368L69.28 376L55.43 368L55.43 352zM55.43 368L69.28 376L69.28 392L55.43 400L41.57 392L41.57 376zM69.28 392L83.14 400L83.14 416L69.28 424L55.43 416L55.43 400zM55.43 416L69.28 424L69.28 440L55.43 448L41.57 440L41.57 424zM69.28 440L83.14 448L83.14 464L69.28 472L55.43 464L55.43 448zM55.43 464L69.28 472L69.28 488L55.43 496L41.57 488L41.57 472zM69.28 488L83.14 496L83.14 512L69.28 520L55.43 512L55.43 496zM55.43 512L69.28 520L69.28 536L55.43 544L41.57 536L41.57 520zM69.28 536L83.14 544L83.14 560L69.28 568L55.43 560L55.43 544zM55.43 560L69.28 568L69.28 584L55.43 592L41.57 584L41.57 568zM69.28 584L83.14 592L83.14 608L69.28 616L55.43 608L55.43 592zM55.43 608L69.28 616L69.28 632L55.43 640L41.57 632L41.57 616zM83.14 -16L97 -8L97 8L83.14 16L69.28 8L69.28 -8zM97 8L110.85 16L110.85 32L97 40L83.14 32L83.14 16zM83.14 32L97 40L97 56L83.14 64L69.28 56L69.28 40zM97 56L110.85 64L110.85 80L97 88L83.14 80L83.14 64zM83.14 80L97 88L97 104L83.14 112L69.28 104L69.28 88zM97 104L110.85 112L110.85 128L97 136L83.14 128L83.14 112zM83.14 128L97 136L97 152L83.14 160L69.28 152L69.28 136zM97 152L110.85 160L110.85 176L97 184L83.14 176L83.14 160zM83.14 176L97 184L97 200L83.14 208L69.28 200L69.28 184zM97 200L110.85 208L110.85 224L97 232L83.14 224L83.14 208zM83.14 224L97 232L97 248L83.14 256L69.28 248L69.28 232zM97 248L110.85 256L110.85 272L97 280L83.14 272L83.14 256zM83.14 272L97 280L97 296L83.14 304L69.28 296L69.28 280zM97 296L110.85 304L110.85 320L97 328L83.14 320L83.14 304zM83.14 320L97 328L97 344L83.14 352L69.28 344L69.28 328zM97 344L110.85 352L110.85 368L97 376L83.14 368L83.14 352zM83.14 368L97 376L97 392L83.14 400L69.28 392L69.28 376zM97 392L110.85 400L110.85 416L97 424L83.14 416L83.14 400zM83.14 416L97 424L97 440L83.14 448L69.28 440L69.28 424zM97 440L110.85 448L110.85 464L97 472L83.14 464L83.14 448zM83.14 464L97 472L97 488L83.14 496L69.28 488L69.28 472zM97 488L110.85 496L110.85 512L97 520L83.14 512L83.14 496zM83.14 512L97 520L97 536L83.14 544L69.28 536L69.28 520zM97 536L110.85 544L110.85 560L97 568L83.14 560L83.14 544zM83.14 560L97 568L97 584L83.14 592L69.28 584L69.28 568zM97 584L110.85 592L110.85 608L97 616L83.14 608L83.14 592zM83.14 608L97 616L97 632L83.14 640L69.28 632L69.28 616zM110.85 -16L124.71 -8L124.71 8L110.85 16L97 8L97 -8zM124.71 8L138.57 16L138.57 32L124.71 40L110.85 32L110.85 16zM110.85 32L124.71 40L124.71 56L110.85 64L97 56L97 40zM124.71 56L138.57 64L138.57 80L124.71 88L110.85 80L110.85 64zM110.85 80L124.71 88L124.71 104L110.85 112L97 104L97 88zM124.71 104L138.57 112L138.57 128L124.71 136L110.85 128L110.85 112zM110.85 128L124.71 136L124.71 152L110.85 160L97 152L97 136zM124.71 152L138.57 160L138.57 176L124.71 184L110.85 176L110.85 160zM110.85 176L124.71 184L124.71 200L110.85 208L97 200L97 184zM124.71 200L138.57 208L138.57 224L124.71 232L110.85 224L110.85 208zM110.85 224L124.71 232L124.71 248L110.85 256L97 248L97 232zM124.71 248L138.57 256L138.57 272L124.71 280L110.85 272L110.85 256zM110.85 272L124.71 280L124.71 296L110.85 304L97 296L97 280zM124.71 296L138.57 304L138.57 320L124.71 328L110.85 320L110.85 304zM110.85 320L124.71 328L124.71 344L110.85 352L97 344L97 328zM124.71 344L138.57 352L138.57 368L124.71 376L110.85 368L110.85 352zM110.85 368L124.71 376L124.71 392L110.85 400L97 392L97 376zM124.71 392L138.57 400L138.57 416L124.71 424L110.85 416L110.85 400zM110.85 416L124.71 424L124.71 440L110.85 448L97 440L97 424zM124.71 440L138.57 448L138.57 464L124.71 472L110.85 464L110.85 448zM110.85 464L124.71 472L124.71 488L110.85 496L97 488L97 472zM124.71 488L138.57 496L138.57 512L124.71 520L110.85 512L110.85 496zM110.85 512L124.71 520L124.71 536L110.85 544L97 536L97 520zM124.71 536L138.57 544L138.57 560L124.71 568L110.85 560L110.85 544zM110.85 560L124.71 568L124.71 584L110.85 592L97 584L97 568zM124.71 584L138.57 592L138.57 608L124.71 616L110.85 608L110.85 592zM110.85 608L124.71 616L124.71 632L110.85 640L97 632L97 616zM138.57 -16L152.42 -8L152.42 8L138.57 16L124.71 8L124.71 -8zM152.42 8L166.28 16L166.28 32L152.42 40L138.57 32L138.57 16zM138.57 32L152.42 40L152.42 56L138.57 64L124.71 56L124.71 40zM152.42 56L166.28 64L166.28 80L152.42 88L138.57 80L138.57 64zM138.57 80L152.42 88L152.42 104L138.57 112L124.71 104L124.71 88zM152.42 104L166.28 112L166.28 128L152.42 136L138.57 128L138.57 112zM138.57 128L152.42 136L152.42 152L138.57 160L124.71 152L124.71 136zM152.42 152L166.28 160L166.28 176L152.42 184L138.57 176L138.57 160zM138.57 176L152.42 184L152.42 200L138.57 208L124.71 200L124.71 184zM152.42 200L166.28 208L166.28 224L152.42 232L138.57 224L138.57 208zM138.57 224L152.42 232L152.42 248L138.57 256L124.71 248L124.71 232zM152.42 248L166.28 256L166.28 272L152.42 280L138.57 272L138.57 256zM138.57 272L152.42 280L152.42 296L138.57 304L124.71 296L124.71 280zM152.42 296L166.28 304L166.28 320L152.42 328L138.57 320L138.57 304zM138.57 320L152.42 328L152.42 344L138.57 352L124.71 344L124.71 328zM152.42 344L166.28 352L166.28 368L152.42 376L138.57 368L138.57 352zM138.57 368L152.42 376L152.42 392L138.57 400L124.71 392L124.71 376zM152.42 392L166.28 400L166.28 416L152.42 424L138.57 416L138.57 400zM138.57 416L152.42 424L152.42 440L138.57 448L124.71 440L124.71 424zM152.42 440L166.28 448L166.28 464L152.42 472L138.57 464L138.57 448zM138.57 464L152.42 472L152.42 488L138.57 496L124.71 488L124.71 472zM152.42 488L166.28 496L166.28 512L152.42 520L138.57 512L138.57 496zM138.57 512L152.42 520L152.42 536L138.57 544L124.71 536L124.71 520zM152.42 536L166.28 544L166.28 560L152.42 568L138.57 560L138.57 544zM138.57 560L152.42 568L152.42 584L138.57 592L124.71 584L124.71 568zM152.42 584L166.28 592L166.28 608L152.42 616L138.57 608L138.57 592zM138.57 608L152.42 616L152.42 632L138.57 640L124.71 632L124.71 616zM166.28 -16L180.14 -8L180.14 8L166.28 16L152.42 8L152.42 -8zM180.14 8L194 16L194 32L180.14 40L166.28 32L166.28 16zM166.28 32L180.14 40L180.14 56L166.28 64L152.42 56L152.42 40zM180.14 56L194 64L194 80L180.14 88L166.28 80L166.28 64zM166.28 80L180.14 88L180.14 104L166.28 112L152.42 104L152.42 88zM180.14 104L194 112L194 128L180.14 136L166.28 128L166.28 112zM166.28 128L180.14 136L180.14 152L166.28 160L152.42 152L152.42 136zM180.14 152L194 160L194 176L180.14 184L166.28 176L166.28 160zM166.28 176L180.14 184L180.14 200L166.28 208L152.42 200L152.42 184zM180.14 200L194 208L194 224L180.14 232L166.28 224L166.28 208zM166.28 224L180.14 232L180.14 248L166.28 256L152.42 248L152.42 232zM180.14 248L194 256L194 272L180.14 280L166.28 272L166.28 256zM166.28 272L180.14 280L180.14 296L166.28 304L152.42 296L152.42 280zM180.14 296L194 304L194 320L180.14 328L166.28 320L166.28 304zM166.28 320L180.14 328L180.14 344L166.28 352L152.42 344L152.42 328zM180.14 344L194 352L194 368L180.14 376L166.28 368L166.28 352zM166.28 368L180.14 376L180.14 392L166.28 400L152.42 392L152.42 376zM180.14 392L194 400L194 416L180.14 424L166.28 416L166.28 400zM166.28 416L180.14 424L180.14 440L166.28 448L152.42 440L152.42 424zM180.14 440L194 448L194 464L180.14 472L166.28 464L166.28 448zM166.28 464L180.14 472L180.14 488L166.28 496L152.42 488L152.42 472zM180.14 488L194 496L194 512L180.14 520L166.28 512L166.28 496zM166.28 512L180.14 520L180.14 536L166.28 544L152.42 536L152.42 520zM180.14 536L194 544L194 560L180.14 568L166.28 560L166.28 544zM166.28 560L180.14 568L180.14 584L166.28 592L152.42 584L152.42 568zM180.14 584L194 592L194 608L180.14 616L166.28 608L166.28 592zM166.28 608L180.14 616L180.14 632L166.28 640L152.42 632L152.42 616zM194 -16L207.85 -8L207.85 8L194 16L180.14 8L180.14 -8zM207.85 8L221.71 16L221.71 32L207.85 40L194 32L194 16zM194 32L207.85 40L207.85 56L194 64L180.14 56L180.14 40zM207.85 56L221.71 64L221.71 80L207.85 88L194 80L194 64zM194 80L207.85 88L207.85 104L194 112L180.14 104L180.14 88zM207.85 104L221.71 112L221.71 128L207.85 136L194 128L194 112zM194 128L207.85 136L207.85 152L194 160L180.14 152L180.14 136zM207.85 152L221.71 160L221.71 176L207.85 184L194 176L194 160zM194 176L207.85 184L207.85 200L194 208L180.14 200L180.14 184zM207.85 200L221.71 208L221.71 224L207.85 232L194 224L194 208zM194 224L207.85 232L207.85 248L194 256L180.14 248L180.14 232zM207.85 248L221.71 256L221.71 272L207.85 280L194 272L194 256zM194 272L207.85 280L207.85 296L194 304L180.14 296L180.14 280zM207.85 296L221.71 304L221.71 320L207.85 328L194 320L194 304zM194 320L207.85 328L207.85 344L194 352L180.14 344L180.14 328zM207.85 344L221.71 352L221.71 368L207.85 376L194 368L194 352zM194 368L207.85 376L207.85 392L194 400L180.14 392L180.14 376zM207.85 392L221.71 400L221.71 416L207.85 424L194 416L194 400zM194 416L207.85 424L207.85 440L194 448L180.14 440L180.14 424zM207.85 440L221.71 448L221.71 464L207.85 472L194 464L194 448zM194 464L207.85 472L207.85 488L194 496L180.14 488L180.14 472zM207.85 488L221.71 496L221.71 512L207.85 520L194 512L194 496zM194 512L207.85 520L207.85 536L194 544L180.14 536L180.14 520zM207.85 536L221.71 544L221.71 560L207.85 568L194 560L194 544zM194 560L207.85 568L207.85 584L194 592L180.14 584L180.14 568zM207.85 584L221.71 592L221.71 608L207.85 616L194 608L194 592zM194 608L207.85 616L207.85 632L194 640L180.14 632L180.14 616zM221.71 -16L235.57 -8L235.57 8L221.71 16L207.85 8L207.85 -8zM235.57 8L249.42 16L249.42 32L235.57 40L221.71 32L221.71 16zM221.71 32L235.57 40L235.57 56L221.71 64L207.85 56L207.85 40zM235.57 56L249.42 64L249.42 80L235.57 88L221.71 80L221.71 64zM221.71 80L235.57 88L235.57 104L221.71 112L207.85 104L207.85 88zM235.57 104L249.42 112L249.42 128L235.57 136L221.71 128L221.71 112zM221.71 128L235.57 136L235.57 152L221.71 160L207.85 152L207.85 136zM235.57 152L249.42 160L249.42 176L235.57 184L221.71 176L221.71 160zM221.71 176L235.57 184L235.57 200L221.71 208L207.85 200L207.85 184zM235.57 200L249.42 208L249.42 224L235.57 232L221.71 224L221.71 208zM221.71 224L235.57 232L235.57 248L221.71 256L207.85 248L207.85 232zM235.57 248L249.42 256L249.42 272L235.57 280L221.71 272L221.71 256zM221.71 272L235.57 280L235.57 296L221.71 304L207.85 296L207.85 280zM235.57 296L249.42 304L249.42 320L235.57 328L221.71 320L221.71 304zM221.71 320L235.57 328L235.57 344L221.71 352L207.85 344L207.85 328zM235.57 344L249.42 352L249.42 368L235.57 376L221.71 368L221.71 352zM221.71 368L235.57 376L235.57 392L221.71 400L207.85 392L207.85 376zM235.57 392L249.42 400L249.42 416L235.57 424L221.71 416L221.71 400zM221.71 416L235.57 424L235.57 440L221.71 448L207.85 440L207.85 424zM235.57 440L249.42 448L249.42 464L235.57 472L221.71 464L221.71 448zM221.71 464L235.57 472L235.57 488L221.71 496L207.85 488L207.85 472zM235.57 488L249.42 496L249.42 512L235.57 520L221.71 512L221.71 496zM221.71 512L235.57 520L235.57 536L221.71 544L207.85 536L207.85 520zM235.57 536L249.42 544L249.42 560L235.57 568L221.71 560L221.71 544zM221.71 560L235.57 568L235.57 584L221.71 592L207.85 584L207.85 568zM235.57 584L249.42 592L249.42 608L235.57 616L221.71 608L221.71 592zM221.71 608L235.57 616L235.57 632L221.71 640L207.85 632L207.85 616zM249.42 -16L263.28 -8L263.28 8L249.42 16L235.57 8L235.57 -8zM263.28 8L277.14 16L277.14 32L263.28 40L249.42 32L249.42 16zM249.42 32L263.28 40L263.28 56L249.42 64L235.57 56L235.57 40zM263.28 56L277.14 64L277.14 80L263.28 88L249.42 80L249.42 64zM249.42 80L263.28 88L263.28 104L249.42 112L235.57 104L235.57 88zM263.28 104L277.14 112L277.14 128L263.28 136L249.42 128L249.42 112zM249.42 128L263.28 136L263.28 152L249.42 160L235.57 152L235.57 136zM263.28 152L277.14 160L277.14 176L263.28 184L249.42 176L249.42 160zM249.42 176L263.28 184L263.28 200L249.42 208L235.57 200L235.57 184zM263.28 200L277.14 208L277.14 224L263.28 232L249.42 224L249.42 208zM249.42 224L263.28 232L263.28 248L249.42 256L235.57 248L235.57 232zM263.28 248L277.14 256L277.14 272L263.28 280L249.42 272L249.42 256zM249.42 272L263.28 280L263.28 296L249.42 304L235.57 296L235.57 280zM263.28 296L277.14 304L277.14 320L263.28 328L249.42 320L249.42 304zM249.42 320L263.28 328L263.28 344L249.42 352L235.57 344L235.57 328zM263.28 344L277.14 352L277.14 368L263.28 376L249.42 368L249.42 352zM249.42 368L263.28 376L263.28 392L249.42 400L235.57 392L235.57 376zM263.28 392L277.14 400L277.14 416L263.28 424L249.42 416L249.42 400zM249.42 416L263.28 424L263.28 440L249.42 448L235.57 440L235.57 424zM263.28 440L277.14 448L277.14 464L263.28 472L249.42 464L249.42 448zM249.42 464L263.28 472L263.28 488L249.42 496L235.57 488L235.57 472zM263.28 488L277.14 496L277.14 512L263.28 520L249.42 512L249.42 496zM249.42 512L263.28 520L263.28 536L249.42 544L235.57 536L235.57 520zM263.28 536L277.14 544L277.14 560L263.28 568L249.42 560L249.42 544zM249.42 560L263.28 568L263.28 584L249.42 592L235.57 584L235.57 568zM263.28 584L277.14 592L277.14 608L263.28 616L249.42 608L249.42 592zM249.42 608L263.28 616L263.28 632L249.42 640L235.57 632L235.57 616zM277.14 -16L290.99 -8L290.99 8L277.14 16L263.28 8L263.28 -8zM290.99 8L304.85 16L304.85 32L290.99 40L277.14 32L277.14 16zM277.14 32L290.99 40L290.99 56L277.14 64L263.28 56L263.28 40zM290.99 56L304.85 64L304.85 80L290.99 88L277.14 80L277.14 64zM277.14 80L290.99 88L290.99 104L277.14 112L263.28 104L263.28 88zM290.99 104L304.85 112L304.85 128L290.99 136L277.14 128L277.14 112zM277.14 128L290.99 136L290.99 152L277.14 160L263.28 152L263.28 136zM290.99 152L304.85 160L304.85 176L290.99 184L277.14 176L277.14 160zM277.14 176L290.99 184L290.99 200L277.14 208L263.28 200L263.28 184zM290.99 200L304.85 208L304.85 224L290.99 232L277.14 224L277.14 208zM277.14 224L290.99 232L290.99 248L277.14 256L263.28 248L263.28 232zM290.99 248L304.85 256L304.85 272L290.99 280L277.14 272L277.14 256zM277.14 272L290.99 280L290.99 296L277.14 304L263.28 296L263.28 280zM290.99 296L304.85 304L304.85 320L290.99 328L277.14 320L277.14 304zM277.14 320L290.99 328L290.99 344L277.14 352L263.28 344L263.28 328zM290.99 344L304.85 352L304.85 368L290.99 376L277.14 368L277.14 352zM277.14 368L290.99 376L290.99 392L277.14 400L263.28 392L263.28 376zM290.99 392L304.85 400L304.85 416L290.99 424L277.14 416L277.14 400zM277.14 416L290.99 424L290.99 440L277.14 448L263.28 440L263.28 424zM290.99 440L304.85 448L304.85 464L290.99 472L277.14 464L277.14 448zM277.14 464L290.99 472L290.99 488L277.14 496L263.28 488L263.28 472zM290.99 488L304.85 496L304.85 512L290.99 520L277.14 512L277.14 496zM277.14 512L290.99 520L290.99 536L277.14 544L263.28 536L263.28 520zM290.99 536L304.85 544L304.85 560L290.99 568L277.14 560L277.14 544zM277.14 560L290.99 568L290.99 584L277.14 592L263.28 584L263.28 568zM290.99 584L304.85 592L304.85 608L290.99 616L277.14 608L277.14 592zM277.14 608L290.99 616L290.99 632L277.14 640L263.28 632L263.28 616zM304.85 -16L318.71 -8L318.71 8L304.85 16L290.99 8L290.99 -8zM318.71 8L332.56 16L332.56 32L318.71 40L304.85 32L304.85 16zM304.85 32L318.71 40L318.71 56L304.85 64L290.99 56L290.99 40zM318.71 56L332.56 64L332.56 80L318.71 88L304.85 80L304.85 64zM304.85 80L318.71 88L318.71 104L304.85 112L290.99 104L290.99 88zM318.71 104L332.56 112L332.56 128L318.71 136L304.85 128L304.85 112zM304.85 128L318.71 136L318.71 152L304.85 160L290.99 152L290.99 136zM318.71 152L332.56 160L332.56 176L318.71 184L304.85 176L304.85 160zM304.85 176L318.71 184L318.71 200L304.85 208L290.99 200L290.99 184zM318.71 200L332.56 208L332.56 224L318.71 232L304.85 224L304.85 208zM304.85 224L318.71 232L318.71 248L304.85 256L290.99 248L290.99 232zM318.71 248L332.56 256L332.56 272L318.71 280L304.85 272L304.85 256zM304.85 272L318.71 280L318.71 296L304.85 304L290.99 296L290.99 280zM318.71 296L332.56 304L332.56 320L318.71 328L304.85 320L304.85 304zM304.85 320L318.71 328L318.71 344L304.85 352L290.99 344L290.99 328zM318.71 344L332.56 352L332.56 368L318.71 376L304.85 368L304.85 352zM304.85 368L318.71 376L318.71 392L304.85 400L290.99 392L290.99 376zM318.71 392L332.56 400L332.56 416L318.71 424L304.85 416L304.85 400zM304.85 416L318.71 424L318.71 440L304.85 448L290.99 440L290.99 424zM318.71 440L332.56 448L332.56 464L318.71 472L304.85 464L304.85 448zM304.85 464L318.71 472L318.71 488L304.85 496L290.99 488L290.99 472zM318.71 488L332.56 496L332.56 512L318.71 520L304.85 512L304.85 496zM304.85 512L318.71 520L318.71 536L304.85 544L290.99 536L290.99 520zM318.71 536L332.56 544L332.56 560L318.71 568L304.85 560L304.85 544zM304.85 560L318.71 568L318.71 584L304.85 592L290.99 584L290.99 568zM318.71 584L332.56 592L332.56 608L318.71 616L304.85 608L304.85 592zM304.85 608L318.71 616L318.71 632L304.85 640L290.99 632L290.99 616zM332.56 -16L346.42 -8L346.42 8L332.56 16L318.71 8L318.71 -8zM346.42 8L360.28 16L360.28 32L346.42 40L332.56 32L332.56 16zM332.56 32L346.42 40L346.42 56L332.56 64L318.71 56L318.71 40zM346.42 56L360.28 64L360.28 80L346.42 88L332.56 80L332.56 64zM332.56 80L346.42 88L346.42 104L332.56 112L318.71 104L318.71 88zM346.42 104L360.28 112L360.28 128L346.42 136L332.56 128L332.56 112zM332.56 128L346.42 136L346.42 152L332.56 160L318.71 152L318.71 136zM346.42 152L360.28 160L360.28 176L346.42 184L332.56 176L332.56 160zM332.56 176L346.42 184L346.42 200L332.56 208L318.71 200L318.71 184zM346.42 200L360.28 208L360.28 224L346.42 232L332.56 224L332.56 208zM332.56 224L346.42 232L346.42 248L332.56 256L318.71 248L318.71 232zM346.42 248L360.28 256L360.28 272L346.42 280L332.56 272L332.56 256zM332.56 272L346.42 280L346.42 296L332.56 304L318.71 296L318.71 280zM346.42 296L360.28 304L360.28 320L346.42 328L332.56 320L332.56 304zM332.56 320L346.42 328L346.42 344L332.56 352L318.71 344L318.71 328zM346.42 344L360.28 352L360.28 368L346.42 376L332.56 368L332.56 352zM332.56 368L346.42 376L346.42 392L332.56 400L318.71 392L318.71 376zM346.42 392L360.28 400L360.28 416L346.42 424L332.56 416L332.56 400zM332.56 416L346.42 424L346.42 440L332.56 448L318.71 440L318.71 424zM346.42 440L360.28 448L360.28 464L346.42 472L332.56 464L332.56 448zM332.56 464L346.42 472L346.42 488L332.56 496L318.71 488L318.71 472zM346.42 488L360.28 496L360.28 512L346.42 520L332.56 512L332.56 496zM332.56 512L346.42 520L346.42 536L332.56 544L318.71 536L318.71 520zM346.42 536L360.28 544L360.28 560L346.42 568L332.56 560L332.56 544zM332.56 560L346.42 568L346.42 584L332.56 592L318.71 584L318.71 568zM346.42 584L360.28 592L360.28 608L346.42 616L332.56 608L332.56 592zM332.56 608L346.42 616L346.42 632L332.56 640L318.71 632L318.71 616zM360.28 -16L374.13 -8L374.13 8L360.28 16L346.42 8L346.42 -8zM374.13 8L387.99 16L387.99 32L374.13 40L360.28 32L360.28 16zM360.28 32L374.13 40L374.13 56L360.28 64L346.42 56L346.42 40zM374.13 56L387.99 64L387.99 80L374.13 88L360.28 80L360.28 64zM360.28 80L374.13 88L374.13 104L360.28 112L346.42 104L346.42 88zM374.13 104L387.99 112L387.99 128L374.13 136L360.28 128L360.28 112zM360.28 128L374.13 136L374.13 152L360.28 160L346.42 152L346.42 136zM374.13 152L387.99 160L387.99 176L374.13 184L360.28 176L360.28 160zM360.28 176L374.13 184L374.13 200L360.28 208L346.42 200L346.42 184zM374.13 200L387.99 208L387.99 224L374.13 232L360.28 224L360.28 208zM360.28 224L374.13 232L374.13 248L360.28 256L346.42 248L346.42 232zM374.13 248L387.99 256L387.99 272L374.13 280L360.28 272L360.28 256zM360.28 272L374.13 280L374.13 296L360.28 304L346.42 296L346.42 280zM374.13 296L387.99 304L387.99 320L374.13 328L360.28 320L360.28 304zM360.28 320L374.13 328L374.13 344L360.28 352L346.42 344L346.42 328zM374.13 344L387.99 352L387.99 368L374.13 376L360.28 368L360.28 352zM360.28 368L374.13 376L374.13 392L360.28 400L346.42 392L346.42 376zM374.13 392L387.99 400L387.99 416L374.13 424L360.28 416L360.28 400zM360.28 416L374.13 424L374.13 440L360.28 448L346.42 440L346.42 424zM374.13 440L387.99 448L387.99 464L374.13 472L360.28 464L360.28 448zM360.28 464L374.13 472L374.13 488L360.28 496L346.42 488L346.42 472zM374.13 488L387.99 496L387.99 512L374.13 520L360.28 512L360.28 496zM360.28 512L374.13 520L374.13 536L360.28 544L346.42 536L346.42 520zM374.13 536L387.99 544L387.99 560L374.13 568L360.28 560L360.28 544zM360.28 560L374.13 568L374.13 584L360.28 592L346.42 584L346.42 568zM374.13 584L387.99 592L387.99 608L374.13 616L360.28 608L360.28 592zM360.28 608L374.13 616L374.13 632L360.28 640L346.42 632L346.42 616zM387.99 -16L401.85 -8L401.85 8L387.99 16L374.13 8L374.13 -8zM401.85 8L415.7 16L415.7 32L401.85 40L387.99 32L387.99 16zM387.99 32L401.85 40L401.85 56L387.99 64L374.13 56L374.13 40zM401.85 56L415.7 64L415.7 80L401.85 88L387.99 80L387.99 64zM387.99 80L401.85 88L401.85 104L387.99 112L374.13 104L374.13 88zM401.85 104L415.7 112L415.7 128L401.85 136L387.99 128L387.99 112zM387.99 128L401.85 136L401.85 152L387.99 160L374.13 152L374.13 136zM401.85 152L415.7 160L415.7 176L401.85 184L387.99 176L387.99 160zM387.99 176L401.85 184L401.85 200L387.99 208L374.13 200L374.13 184zM401.85 200L415.7 208L415.7 224L401.85 232L387.99 224L387.99 208zM387.99 224L401.85 232L401.85 248L387.99 256L374.13 248L374.13 232zM401.85 248L415.7 256L415.7 272L401.85 280L387.99 272L387.99 256zM387.99 272L401.85 280L401.85 296L387.99 304L374.13 296L374.13 280zM401.85 296L415.7 304L415.7 320L401.85 328L387.99 320L387.99 304zM387.99 320L401.85 328L401.85 344L387.99 352L374.13 344L374.13 328zM401.85 344L415.7 352L415.7 368L401.85 376L387.99 368L387.99 352zM387.99 368L401.85 376L401.85 392L387.99 400L374.13 392L374.13 376zM401.85 392L415.7 400L415.7 416L401.85 424L387.99 416L387.99 400zM387.99 416L401.85 424L401.85 440L387.99 448L374.13 440L374.13 424zM401.85 440L415.7 448L415.7 464L401.85 472L387.99 464L387.99 448zM387.99 464L401.85 472L401.85 488L387.99 496L374.13 488L374.13 472zM401.85 488L415.7 496L415.7 512L401.85 520L387.99 512L387.99 496zM387.99 512L401.85 520L401.85 536L387.99 544L374.13 536L374.13 520zM401.85 536L415.7 544L415.7 560L401.85 568L387.99 560L387.99 544zM387.99 560L401.85 568L401.85 584L387.99 592L374.13 584L374.13 568zM401.85 584L415.7 592L415.7 608L401.85 616L387.99 608L387.99 592zM387.99 608L401.85 616L401.85 632L387.99 640L374.13 632L374.13 616zM415.7 -16L429.56 -8L429.56 8L415.7 16L401.85 8L401.85 -8zM429.56 8L443.42 16L443.42 32L429.56 40L415.7 32L415.7 16zM415.7 32L429.56 40L429.56 56L415.7 64L401.85 56L401.85 40zM429.56 56L443.42 64L443.42 80L429.56 88L415.7 80L415.7 64zM415.7 80L429.56 88L429.56 104L415.7 112L401.85 104L401.85 88zM429.56 104L443.42 112L443.42 128L429.56 136L415.7 128L415.7 112zM415.7 128L429.56 136L429.56 152L415.7 160L401.85 152L401.85 136zM429.56 152L443.42 160L443.42 176L429.56 184L415.7 176L415.7 160zM415.7 176L429.56 184L429.56 200L415.7 208L401.85 200L401.85 184zM429.56 200L443.42 208L443.42 224L429.56 232L415.7 224L415.7 208zM415.7 224L429.56 232L429.56 248L415.7 256L401.85 248L401.85 232zM429.56 248L443.42 256L443.42 272L429.56 280L415.7 272L415.7 256zM415.7 272L429.56 280L429.56 296L415.7 304L401.85 296L401.85 280zM429.56 296L443.42 304L443.42 320L429.56 328L415.7 320L415.7 304zM415.7 320L429.56 328L429.56 344L415.7 352L401.85 344L401.85 328zM429.56 344L443.42 352L443.42 368L429.56 376L415.7 368L415.7 352zM415.7 368L429.56 376L429.56 392L415.7 400L401.85 392L401.85 376zM429.56 392L443.42 400L443.42 416L429.56 424L415.7 416L415.7 400zM415.7 416L429.56 424L429.56 440L415.7 448L401.85 440L401.85 424zM429.56 440L443.42 448L443.42 464L429.56 472L415.7 464L415.7 448zM415.7 464L429.56 472L429.56 488L415.7 496L401.85 488L401.85 472zM429.56 488L443.42 496L443.42 512L429.56 520L415.7 512L415.7 496zM415.7 512L429.56 520L429.56 536L415.7 544L401.85 536L401.85 520zM429.56 536L443.42 544L443.42 560L429.56 568L415.7 560L415.7 544zM415.7 560L429.56 568L429.56 584L415.7 592L401.85 584L401.85 568zM429.56 584L443.42 592L443.42 608L429.56 616L415.7 608L415.7 592zM415.7 608L429.56 616L429.56 632L415.7 640L401.85 632L401.85 616zM443.42 -16L457.27 -8L457.27 8L443.42 16L429.56 8L429.56 -8zM457.27 8L471.13 16L471.13 32L457.27 40L443.42 32L443.42 16zM443.42 32L457.27 40L457.27 56L443.42 64L429.56 56L429.56 40zM457.27 56L471.13 64L471.13 80L457.27 88L443.42 80L443.42 64zM443.42 80L457.27 88L457.27 104L443.42 112L429.56 104L429.56 88zM457.27 104L471.13 112L471.13 128L457.27 136L443.42 128L443.42 112zM443.42 128L457.27 136L457.27 152L443.42 160L429.56 152L429.56 136zM457.27 152L471.13 160L471.13 176L457.27 184L443.42 176L443.42 160zM443.42 176L457.27 184L457.27 200L443.42 208L429.56 200L429.56 184zM457.27 200L471.13 208L471.13 224L457.27 232L443.42 224L443.42 208zM443.42 224L457.27 232L457.27 248L443.42 256L429.56 248L429.56 232zM457.27 248L471.13 256L471.13 272L457.27 280L443.42 272L443.42 256zM443.42 272L457.27 280L457.27 296L443.42 304L429.56 296L429.56 280zM457.27 296L471.13 304L471.13 320L457.27 328L443.42 320L443.42 304zM443.42 320L457.27 328L457.27 344L443.42 352L429.56 344L429.56 328zM457.27 344L471.13 352L471.13 368L457.27 376L443.42 368L443.42 352zM443.42 368L457.27 376L457.27 392L443.42 400L429.56 392L429.56 376zM457.27 392L471.13 400L471.13 416L457.27 424L443.42 416L443.42 400zM443.42 416L457.27 424L457.27 440L443.42 448L429.56 440L429.56 424zM457.27 440L471.13 448L471.13 464L457.27 472L443.42 464L443.42 448zM443.42 464L457.27 472L457.27 488L443.42 496L429.56 488L429.56 472zM457.27 488L471.13 496L471.13 512L457.27 520L443.42 512L443.42 496zM443.42 512L457.27 520L457.27 536L443.42 544L429.56 536L429.56 520zM457.27 536L471.13 544L471.13 560L457.27 568L443.42 560L443.42 544zM443.42 560L457.27 568L457.27 584L443.42 592L429.56 584L429.56 568zM457.27 584L471.13 592L471.13 608L457.27 616L443.42 608L443.42 592zM443.42 608L457.27 616L457.27 632L443.42 640L429.56 632L429.56 616zM471.13 -16L484.99 -8L484.99 8L471.13 16L457.27 8L457.27 -8zM484.99 8L498.84 16L498.84 32L484.99 40L471.13 32L471.13 16zM471.13 32L484.99 40L484.99 56L471.13 64L457.27 56L457.27 40zM484.99 56L498.84 64L498.84 80L484.99 88L471.13 80L471.13 64zM471.13 80L484.99 88L484.99 104L471.13 112L457.27 104L457.27 88zM484.99 104L498.84 112L498.84 128L484.99 136L471.13 128L471.13 112zM471.13 128L484.99 136L484.99 152L471.13 160L457.27 152L457.27 136zM484.99 152L498.84 160L498.84 176L484.99 184L471.13 176L471.13 160zM471.13 176L484.99 184L484.99 200L471.13 208L457.27 200L457.27 184zM484.99 200L498.84 208L498.84 224L484.99 232L471.13 224L471.13 208zM471.13 224L484.99 232L484.99 248L471.13 256L457.27 248L457.27 232zM484.99 248L498.84 256L498.84 272L484.99 280L471.13 272L471.13 256zM471.13 272L484.99 280L484.99 296L471.13 304L457.27 296L457.27 280zM484.99 296L498.84 304L498.84 320L484.99 328L471.13 320L471.13 304zM471.13 320L484.99 328L484.99 344L471.13 352L457.27 344L457.27 328zM484.99 344L498.84 352L498.84 368L484.99 376L471.13 368L471.13 352zM471.13 368L484.99 376L484.99 392L471.13 400L457.27 392L457.27 376zM484.99 392L498.84 400L498.84 416L484.99 424L471.13 416L471.13 400zM471.13 416L484.99 424L484.99 440L471.13 448L457.27 440L457.27 424zM484.99 440L498.84 448L498.84 464L484.99 472L471.13 464L471.13 448zM471.13 464L484.99 472L484.99 488L471.13 496L457.27 488L457.27 472zM484.99 488L498.84 496L498.84 512L484.99 520L471.13 512L471.13 496zM471.13 512L484.99 520L484.99 536L471.13 544L457.27 536L457.27 520zM484.99 536L498.84 544L498.84 560L484.99 568L471.13 560L471.13 544zM471.13 560L484.99 568L484.99 584L471.13 592L457.27 584L457.27 568zM484.99 584L498.84 592L498.84 608L484.99 616L471.13 608L471.13 592zM471.13 608L484.99 616L484.99 632L471.13 640L457.27 632L457.27 616zM498.84 -16L512.7 -8L512.7 8L498.84 16L484.99 8L484.99 -8zM512.7 8L526.56 16L526.56 32L512.7 40L498.84 32L498.84 16zM498.84 32L512.7 40L512.7 56L498.84 64L484.99 56L484.99 40zM512.7 56L526.56 64L526.56 80L512.7 88L498.84 80L498.84 64zM498.84 80L512.7 88L512.7 104L498.84 112L484.99 104L484.99 88zM512.7 104L526.56 112L526.56 128L512.7 136L498.84 128L498.84 112zM498.84 128L512.7 136L512.7 152L498.84 160L484.99 152L484.99 136zM512.7 152L526.56 160L526.56 176L512.7 184L498.84 176L498.84 160zM498.84 176L512.7 184L512.7 200L498.84 208L484.99 200L484.99 184zM512.7 200L526.56 208L526.56 224L512.7 232L498.84 224L498.84 208zM498.84 224L512.7 232L512.7 248L498.84 256L484.99 248L484.99 232zM512.7 248L526.56 256L526.56 272L512.7 280L498.84 272L498.84 256zM498.84 272L512.7 280L512.7 296L498.84 304L484.99 296L484.99 280zM512.7 296L526.56 304L526.56 320L512.7 328L498.84 320L498.84 304zM498.84 320L512.7 328L512.7 344L498.84 352L484.99 344L484.99 328zM512.7 344L526.56 352L526.56 368L512.7 376L498.84 368L498.84 352zM498.84 368L512.7 376L512.7 392L498.84 400L484.99 392L484.99 376zM512.7 392L526.56 400L526.56 416L512.7 424L498.84 416L498.84 400zM498.84 416L512.7 424L512.7 440L498.84 448L484.99 440L484.99 424zM512.7 440L526.56 448L526.56 464L512.7 472L498.84 464L498.84 448zM498.84 464L512.7 472L512.7 488L498.84 496L484.99 488L484.99 472zM512.7 488L526.56 496L526.56 512L512.7 520L498.84 512L498.84 496zM498.84 512L512.7 520L512.7 536L498.84 544L484.99 536L484.99 520zM512.7 536L526.56 544L526.56 560L512.7 568L498.84 560L498.84 544zM498.84 560L512.7 568L512.7 584L498.84 592L484.99 584L484.99 568zM512.7 584L526.56 592L526.56 608L512.7 616L498.84 608L498.84 592zM498.84 608L512.7 616L512.7 632L498.84 640L484.99 632L484.99 616zM526.56 -16L540.42 -8L540.42 8L526.56 16L512.7 8L512.7 -8zM540.42 8L554.27 16L554.27 32L540.42 40L526.56 32L526.56 16zM526.56 32L540.42 40L540.42 56L526.56 64L512.7 56L512.7 40zM540.42 56L554.27 64L554.27 80L540.42 88L526.56 80L526.56 64zM526.56 80L540.42 88L540.42 104L526.56 112L512.7 104L512.7 88zM540.42 104L554.27 112L554.27 128L540.42 136L526.56 128L526.56 112zM526.56 128L540.42 136L540.42 152L526.56 160L512.7 152L512.7 136zM540.42 152L554.27 160L554.27 176L540.42 184L526.56 176L526.56 160zM526.56 176L540.42 184L540.42 200L526.56 208L512.7 200L512.7 184zM540.42 200L554.27 208L554.27 224L540.42 232L526.56 224L526.56 208zM526.56 224L540.42 232L540.42 248L526.56 256L512.7 248L512.7 232zM540.42 248L554.27 256L554.27 272L540.42 280L526.56 272L526.56 256zM526.56 272L540.42 280L540.42 296L526.56 304L512.7 296L512.7 280zM540.42 296L554.27 304L554.27 320L540.42 328L526.56 320L526.56 304zM526.56 320L540.42 328L540.42 344L526.56 352L512.7 344L512.7 328zM540.42 344L554.27 352L554.27 368L540.42 376L526.56 368L526.56 352zM526.56 368L540.42 376L540.42 392L526.56 400L512.7 392L512.7 376zM540.42 392L554.27 400L554.27 416L540.42 424L526.56 416L526.56 400zM526.56 416L540.42 424L540.42 440L526.56 448L512.7 440L512.7 424zM540.42 440L554.27 448L554.27 464L540.42 472L526.56 464L526.56 448zM526.56 464L540.42 472L540.42 488L526.56 496L512.7 488L512.7 472zM540.42 488L554.27 496L554.27 512L540.42 520L526.56 512L526.56 496zM526.56 512L540.42 520L540.42 536L526.56 544L512.7 536L512.7 520zM540.42 536L554.27 544L554.27 560L540.42 568L526.56 560L526.56 544zM526.56 560L540.42 568L540.42 584L526.56 592L512.7 584L512.7 568zM540.42 584L554.27 592L554.27 608L540.42 616L526.56 608L526.56 592zM526.56 608L540.42 616L540.42 632L526.56 640L512.7 632L512.7 616zM554.27 -16L568.13 -8L568.13 8L554.27 16L540.42 8L540.42 -8zM568.13 8L581.99 16L581.99 32L568.13 40L554.27 32L554.27 16zM554.27 32L568.13 40L568.13 56L554.27 64L540.42 56L540.42 40zM568.13 56L581.99 64L581.99 80L568.13 88L554.27 80L554.27 64zM554.27 80L568.13 88L568.13 104L554.27 112L540.42 104L540.42 88zM568.13 104L581.99 112L581.99 128L568.13 136L554.27 128L554.27 112zM554.27 128L568.13 136L568.13 152L554.27 160L540.42 152L540.42 136zM568.13 152L581.99 160L581.99 176L568.13 184L554.27 176L554.27 160zM554.27 176L568.13 184L568.13 200L554.27 208L540.42 200L540.42 184zM568.13 200L581.99 208L581.99 224L568.13 232L554.27 224L554.27 208zM554.27 224L568.13 232L568.13 248L554.27 256L540.42 248L540.42 232zM568.13 248L581.99 256L581.99 272L568.13 280L554.27 272L554.27 256zM554.27 272L568.13 280L568.13 296L554.27 304L540.42 296L540.42 280zM568.13 296L581.99 304L581.99 320L568.13 328L554.27 320L554.27 304zM554.27 320L568.13 328L568.13 344L554.27 352L540.42 344L540.42 328zM568.13 344L581.99 352L581.99 368L568.13 376L554.27 368L554.27 352zM554.27 368L568.13 376L568.13 392L554.27 400L540.42 392L540.42 376zM568.13 392L581.99 400L581.99 416L568.13 424L554.27 416L554.27 400zM554.27 416L568.13 424L568.13 440L554.27 448L540.42 440L540.42 424zM568.13 440L581.99 448L581.99 464L568.13 472L554.27 464L554.27 448zM554.27 464L568.13 472L568.13 488L554.27 496L540.42 488L540.42 472zM568.13 488L581.99 496L581.99 512L568.13 520L554.27 512L554.27 496zM554.27 512L568.13 520L568.13 536L554.27 544L540.42 536L540.42 520zM568.13 536L581.99 544L581.99 560L568.13 568L554.27 560L554.27 544zM554.27 560L568.13 568L568.13 584L554.27 592L540.42 584L540.42 568zM568.13 584L581.99 592L581.99 608L568.13 616L554.27 608L554.27 592zM554.27 608L568.13 616L568.13 632L554.27 640L540.42 632L540.42 616zM581.99 -16L595.84 -8L595.84 8L581.99 16L568.13 8L568.13 -8zM595.84 8L609.7 16L609.7 32L595.84 40L581.99 32L581.99 16zM581.99 32L595.84 40L595.84 56L581.99 64L568.13 56L568.13 40zM595.84 56L609.7 64L609.7 80L595.84 88L581.99 80L581.99 64zM581.99 80L595.84 88L595.84 104L581.99 112L568.13 104L568.13 88zM595.84 104L609.7 112L609.7 128L595.84 136L581.99 128L581.99 112zM581.99 128L595.84 136L595.84 152L581.99 160L568.13 152L568.13 136zM595.84 152L609.7 160L609.7 176L595.84 184L581.99 176L581.99 160zM581.99 176L595.84 184L595.84 200L581.99 208L568.13 200L568.13 184zM595.84 200L609.7 208L609.7 224L595.84 232L581.99 224L581.99 208zM581.99 224L595.84 232L595.84 248L581.99 256L568.13 248L568.13 232zM595.84 248L609.7 256L609.7 272L595.84 280L581.99 272L581.99 256zM581.99 272L595.84 280L595.84 296L581.99 304L568.13 296L568.13 280zM595.84 296L609.7 304L609.7 320L595.84 328L581.99 320L581.99 304zM581.99 320L595.84 328L595.84 344L581.99 352L568.13 344L568.13 328zM595.84 344L609.7 352L609.7 368L595.84 376L581.99 368L581.99 352zM581.99 368L595.84 376L595.84 392L581.99 400L568.13 392L568.13 376zM595.84 392L609.7 400L609.7 416L595.84 424L581.99 416L581.99 400zM581.99 416L595.84 424L595.84 440L581.99 448L568.13 440L568.13 424zM595.84 440L609.7 448L609.7 464L595.84 472L581.99 464L581.99 448zM581.99 464L595.84 472L595.84 488L581.99 496L568.13 488L568.13 472zM595.84 488L609.7 496L609.7 512L595.84 520L581.99 512L581.99 496zM581.99 512L595.84 520L595.84 536L581.99 544L568.13 536L568.13 520zM595.84 536L609.7 544L609.7 560L595.84 568L581.99 560L581.99 544zM581.99 560L595.84 568L595.84 584L581.99 592L568.13 584L568.13 568zM595.84 584L609.7 592L609.7 608L595.84 616L581.99 608L581.99 592zM581.99 608L595.84 616L595.84 632L581.99 640L568.13 632L568.13 616zM609.7 -16L623.56 -8L623.56 8L609.7 16L595.84 8L595.84 -8zM623.56 8L637.41 16L637.41 32L623.56 40L609.7 32L609.7 16zM609.7 32L623.56 40L623.56 56L609.7 64L595.84 56L595.84 40zM623.56 56L637.41 64L637.41 80L623.56 88L609.7 80L609.7 64zM609.7 80L623.56 88L623.56 104L609.7 112L595.84 104L595.84 88zM623.56 104L637.41 112L637.41 128L623.56 136L609.7 128L609.7 112zM609.7 128L623.56 136L623.56 152L609.7 160L595.84 152L595.84 136zM623.56 152L637.41 160L637.41 176L623.56 184L609.7 176L609.7 160zM609.7 176L623.56 184L623.56 200L609.7 208L595.84 200L595.84 184zM623.56 200L637.41 208L637.41 224L623.56 232L609.7 224L609.7 208zM609.7 224L623.56 232L623.56 248L609.7 256L595.84 248L595.84 232zM623.56 248L637.41 256L637.41 272L623.56 280L609.7 272L609.7 256zM609.7 272L623.56 280L623.56 296L609.7 304L595.84 296L595.84 280zM623.56 296L637.41 304L637.41 320L623.56 328L609.7 320L609.7 304zM609.7 320L623.56 328L623.56 344L609.7 352L595.84 344L595.84 328zM623.56 344L637.41 352L637.41 368L623.56 376L609.7 368L609.7 352zM609.7 368L623.56 376L623.56 392L609.7 400L595.84 392L595.84 376zM623.56 392L637.41 400L637.41 416L623.56 424L609.7 416L609.7 400zM609.7 416L623.56 424L623.56 440L609.7 448L595.84 440L595.84 424zM623.56 440L637.41 448L637.41 464L623.56 472L609.7 464L609.7 448zM609.7 464L623.56 472L623.56 488L609.7 496L595.84 488L595.84 472zM623.56 488L637.41 496L637.41 512L623.56 520L609.7 512L609.7 496zM609.7 512L623.56 520L623.56 536L609.7 544L595.84 536L595.84 520zM623.56 536L637.41 544L637.41 560L623.56 568L609.7 560L609.7 544zM609.7 560L623.56 568L623.56 584L609.7 592L595.84 584L595.84 568zM623.56 584L637.41 592L637.41 608L623.56 616L609.7 608L609.7 592zM609.7 608L623.56 616L623.56 632L609.7 640L595.84 632L595.84 616zM637.41 -16L651.27 -8L651.27 8L637.41 16L623.56 8L623.56 -8zM651.27 8L665.13 16L665.13 32L651.27 40L637.41 32L637.41 16zM637.41 32L651.27 40L651.27 56L637.41 64L623.56 56L623.56 40zM651.27 56L665.13 64L665.13 80L651.27 88L637.41 80L637.41 64zM637.41 80L651.27 88L651.27 104L637.41 112L623.56 104L623.56 88zM651.27 104L665.13 112L665.13 128L651.27 136L637.41 128L637.41 112zM637.41 128L651.27 136L651.27 152L637.41 160L623.56 152L623.56 136zM651.27 152L665.13 160L665.13 176L651.27 184L637.41 176L637.41 160zM637.41 176L651.27 184L651.27 200L637.41 208L623.56 200L623.56 184zM651.27 200L665.13 208L665.13 224L651.27 232L637.41 224L637.41 208zM637.41 224L651.27 232L651.27 248L637.41 256L623.56 248L623.56 232zM651.27 248L665.13 256L665.13 272L651.27 280L637.41 272L637.41 256zM637.41 272L651.27 280L651.27 296L637.41 304L623.56 296L623.56 280zM651.27 296L665.13 304L665.13 320L651.27 328L637.41 320L637.41 304zM637.41 320L651.27 328L651.27 344L637.41 352L623.56 344L623.56 328zM651.27 344L665.13 352L665.13 368L651.27 376L637.41 368L637.41 352zM637.41 368L651.27 376L651.27 392L637.41 400L623.56 392L623.56 376zM651.27 392L665.13 400L665.13 416L651.27 424L637.41 416L637.41 400zM637.41 416L651.27 424L651.27 440L637.41 448L623.56 440L623.56 424zM651.27 440L665.13 448L665.13 464L651.27 472L637.41 464L637.41 448zM637.41 464L651.27 472L651.27 488L637.41 496L623.56 488L623.56 472zM651.27 488L665.13 496L665.13 512L651.27 520L637.41 512L637.41 496zM637.41 512L651.27 520L651.27 536L637.41 544L623.56 536L623.56 520zM651.27 536L665.13 544L665.13 560L651.27 568L637.41 560L637.41 544zM637.41 560L651.27 568L651.27 584L637.41 592L623.56 584L623.56 568zM651.27 584L665.13 592L665.13 608L651.27 616L637.41 608L637.41 592zM637.41 608L651.27 616L651.27 632L637.41 640L623.56 632L623.56 616zM665.13 -16L678.98 -8L678.98 8L665.13 16L651.27 8L651.27 -8zM678.98 8L692.84 16L692.84 32L678.98 40L665.13 32L665.13 16zM665.13 32L678.98 40L678.98 56L665.13 64L651.27 56L651.27 40zM678.98 56L692.84 64L692.84 80L678.98 88L665.13 80L665.13 64zM665.13 80L678.98 88L678.98 104L665.13 112L651.27 104L651.27 88zM678.98 104L692.84 112L692.84 128L678.98 136L665.13 128L665.13 112zM665.13 128L678.98 136L678.98 152L665.13 160L651.27 152L651.27 136zM678.98 152L692.84 160L692.84 176L678.98 184L665.13 176L665.13 160zM665.13 176L678.98 184L678.98 200L665.13 208L651.27 200L651.27 184zM678.98 200L692.84 208L692.84 224L678.98 232L665.13 224L665.13 208zM665.13 224L678.98 232L678.98 248L665.13 256L651.27 248L651.27 232zM678.98 248L692.84 256L692.84 272L678.98 280L665.13 272L665.13 256zM665.13 272L678.98 280L678.98 296L665.13 304L651.27 296L651.27 280zM678.98 296L692.84 304L692.84 320L678.98 328L665.13 320L665.13 304zM665.13 320L678.98 328L678.98 344L665.13 352L651.27 344L651.27 328zM678.98 344L692.84 352L692.84 368L678.98 376L665.13 368L665.13 352zM665.13 368L678.98 376L678.98 392L665.13 400L651.27 392L651.27 376zM678.98 392L692.84 400L692.84 416L678.98 424L665.13 416L665.13 400zM665.13 416L678.98 424L678.98 440L665.13 448L651.27 440L651.27 424zM678.98 440L692.84 448L692.84 464L678.98 472L665.13 464L665.13 448zM665.13 464L678.98 472L678.98 488L665.13 496L651.27 488L651.27 472zM678.98 488L692.84 496L692.84 512L678.98 520L665.13 512L665.13 496zM665.13 512L678.98 520L678.98 536L665.13 544L651.27 536L651.27 520zM678.98 536L692.84 544L692.84 560L678.98 568L665.13 560L665.13 544zM665.13 560L678.98 568L678.98 584L665.13 592L651.27 584L651.27 568zM678.98 584L692.84 592L692.84 608L678.98 616L665.13 608L665.13 592zM665.13 608L678.98 616L678.98 632L665.13 640L651.27 632L651.27 616zM692.84 -16L706.7 -8L706.7 8L692.84 16L678.98 8L678.98 -8zM706.7 8L720.55 16L720.55 32L706.7 40L692.84 32L692.84 16zM692.84 32L706.7 40L706.7 56L692.84 64L678.98 56L678.98 40zM706.7 56L720.55 64L720.55 80L706.7 88L692.84 80L692.84 64zM692.84 80L706.7 88L706.7 104L692.84 112L678.98 104L678.98 88zM706.7 104L720.55 112L720.55 128L706.7 136L692.84 128L692.84 112zM692.84 128L706.7 136L706.7 152L692.84 160L678.98 152L678.98 136zM706.7 152L720.55 160L720.55 176L706.7 184L692.84 176L692.84 160zM692.84 176L706.7 184L706.7 200L692.84 208L678.98 200L678.98 184zM706.7 200L720.55 208L720.55 224L706.7 232L692.84 224L692.84 208zM692.84 224L706.7 232L706.7 248L692.84 256L678.98 248L678.98 232zM706.7 248L720.55 256L720.55 272L706.7 280L692.84 272L692.84 256zM692.84 272L706.7 280L706.7 296L692.84 304L678.98 296L678.98 280zM706.7 296L720.55 304L720.55 320L706.7 328L692.84 320L692.84 304zM692.84 320L706.7 328L706.7 344L692.84 352L678.98 344L678.98 328zM706.7 344L720.55 352L720.55 368L706.7 376L692.84 368L692.84 352zM692.84 368L706.7 376L706.7 392L692.84 400L678.98 392L678.98 376zM706.7 392L720.55 400L720.55 416L706.7 424L692.84 416L692.84 400zM692.84 416L706.7 424L706.7 440L692.84 448L678.98 440L678.98 424zM706.7 440L720.55 448L720.55 464L706.7 472L692.84 464L692.84 448zM692.84 464L706.7 472L706.7 488L692.84 496L678.98 488L678.98 472zM706.7 488L720.55 496L720.55 512L706.7 520L692.84 512L692.84 496zM692.84 512L706.7 520L706.7 536L692.84 544L678.98 536L678.98 520zM706.7 536L720.55 544L720.55 560L706.7 568L692.84 560L692.84 544zM692.84 560L706.7 568L706.7 584L692.84 592L678.98 584L678.98 568zM706.7 584L720.55 592L720.55 608L706.7 616L692.84 608L692.84 592zM692.84 608L706.7 616L706.7 632L692.84 640L678.98 632L678.98 616zM720.55 -16L734.41 -8L734.41 8L720.55 16L706.7 8L706.7 -8zM734.41 8L748.27 16L748.27 32L734.41 40L720.55 32L720.55 16zM720.55 32L734.41 40L734.41 56L720.55 64L706.7 56L706.7 40zM734.41 56L748.27 64L748.27 80L734.41 88L720.55 80L720.55 64zM720.55 80L734.41 88L734.41 104L720.55 112L706.7 104L706.7 88zM734.41 104L748.27 112L748.27 128L734.41 136L720.55 128L720.55 112zM720.55 128L734.41 136L734.41 152L720.55 160L706.7 152L706.7 136zM734.41 152L748.27 160L748.27 176L734.41 184L720.55 176L720.55 160zM720.55 176L734.41 184L734.41 200L720.55 208L706.7 200L706.7 184zM734.41 200L748.27 208L748.27 224L734.41 232L720.55 224L720.55 208zM720.55 224L734.41 232L734.41 248L720.55 256L706.7 248L706.7 232zM734.41 248L748.27 256L748.27 272L734.41 280L720.55 272L720.55 256zM720.55 272L734.41 280L734.41 296L720.55 304L706.7 296L706.7 280zM734.41 296L748.27 304L748.27 320L734.41 328L720.55 320L720.55 304zM720.55 320L734.41 328L734.41 344L720.55 352L706.7 344L706.7 328zM734.41 344L748.27 352L748.27 368L734.41 376L720.55 368L720.55 352zM720.55 368L734.41 376L734.41 392L720.55 400L706.7 392L706.7 376zM734.41 392L748.27 400L748.27 416L734.41 424L720.55 416L720.55 400zM720.55 416L734.41 424L734.41 440L720.55 448L706.7 440L706.7 424zM734.41 440L748.27 448L748.27 464L734.41 472L720.55 464L720.55 448zM720.55 464L734.41 472L734.41 488L720.55 496L706.7 488L706.7 472zM734.41 488L748.27 496L748.27 512L734.41 520L720.55 512L720.55 496zM720.55 512L734.41 520L734.41 536L720.55 544L706.7 536L706.7 520zM734.41 536L748.27 544L748.27 560L734.41 568L720.55 560L720.55 544zM720.55 560L734.41 568L734.41 584L720.55 592L706.7 584L706.7 568zM734.41 584L748.27 592L748.27 608L734.41 616L720.55 608L720.55 592zM720.55 608L734.41 616L734.41 632L720.55 640L706.7 632L706.7 616zM748.27 -16L762.12 -8L762.12 8L748.27 16L734.41 8L734.41 -8zM762.12 8L775.98 16L775.98 32L762.12 40L748.27 32L748.27 16zM748.27 32L762.12 40L762.12 56L748.27 64L734.41 56L734.41 40zM762.12 56L775.98 64L775.98 80L762.12 88L748.27 80L748.27 64zM748.27 80L762.12 88L762.12 104L748.27 112L734.41 104L734.41 88zM762.12 104L775.98 112L775.98 128L762.12 136L748.27 128L748.27 112zM748.27 128L762.12 136L762.12 152L748.27 160L734.41 152L734.41 136zM762.12 152L775.98 160L775.98 176L762.12 184L748.27 176L748.27 160zM748.27 176L762.12 184L762.12 200L748.27 208L734.41 200L734.41 184zM762.12 200L775.98 208L775.98 224L762.12 232L748.27 224L748.27 208zM748.27 224L762.12 232L762.12 248L748.27 256L734.41 248L734.41 232zM762.12 248L775.98 256L775.98 272L762.12 280L748.27 272L748.27 256zM748.27 272L762.12 280L762.12 296L748.27 304L734.41 296L734.41 280zM762.12 296L775.98 304L775.98 320L762.12 328L748.27 320L748.27 304zM748.27 320L762.12 328L762.12 344L748.27 352L734.41 344L734.41 328zM762.12 344L775.98 352L775.98 368L762.12 376L748.27 368L748.27 352zM748.27 368L762.12 376L762.12 392L748.27 400L734.41 392L734.41 376zM762.12 392L775.98 400L775.98 416L762.12 424L748.27 416L748.27 400zM748.27 416L762.12 424L762.12 440L748.27 448L734.41 440L734.41 424zM762.12 440L775.98 448L775.98 464L762.12 472L748.27 464L748.27 448zM748.27 464L762.12 472L762.12 488L748.27 496L734.41 488L734.41 472zM762.12 488L775.98 496L775.98 512L762.12 520L748.27 512L748.27 496zM748.27 512L762.12 520L762.12 536L748.27 544L734.41 536L734.41 520zM762.12 536L775.98 544L775.98 560L762.12 568L748.27 560L748.27 544zM748.27 560L762.12 568L762.12 584L748.27 592L734.41 584L734.41 568zM762.12 584L775.98 592L775.98 608L762.12 616L748.27 608L748.27 592zM748.27 608L762.12 616L762.12 632L748.27 640L734.41 632L734.41 616zM775.98 -16L789.84 -8L789.84 8L775.98 16L762.12 8L762.12 -8zM789.84 8L803.69 16L803.69 32L789.84 40L775.98 32L775.98 16zM775.98 32L789.84 40L789.84 56L775.98 64L762.12 56L762.12 40zM789.84 56L803.69 64L803.69 80L789.84 88L775.98 80L775.98 64zM775.98 80L789.84 88L789.84 104L775.98 112L762.12 104L762.12 88zM789.84 104L803.69 112L803.69 128L789.84 136L775.98 128L775.98 112zM775.98 128L789.84 136L789.84 152L775.98 160L762.12 152L762.12 136zM789.84 152L803.69 160L803.69 176L789.84 184L775.98 176L775.98 160zM775.98 176L789.84 184L789.84 200L775.98 208L762.12 200L762.12 184zM789.84 200L803.69 208L803.69 224L789.84 232L775.98 224L775.98 208zM775.98 224L789.84 232L789.84 248L775.98 256L762.12 248L762.12 232zM789.84 248L803.69 256L803.69 272L789.84 280L775.98 272L775.98 256zM775.98 272L789.84 280L789.84 296L775.98 304L762.12 296L762.12 280zM789.84 296L803.69 304L803.69 320L789.84 328L775.98 320L775.98 304zM775.98 320L789.84 328L789.84 344L775.98 352L762.12 344L762.12 328zM789.84 344L803.69 352L803.69 368L789.84 376L775.98 368L775.98 352zM775.98 368L789.84 376L789.84 392L775.98 400L762.12 392L762.12 376zM789.84 392L803.69 400L803.69 416L789.84 424L775.98 416L775.98 400zM775.98 416L789.84 424L789.84 440L775.98 448L762.12 440L762.12 424zM789.84 440L803.69 448L803.69 464L789.84 472L775.98 464L775.98 448zM775.98 464L789.84 472L789.84 488L775.98 496L762.12 488L762.12 472zM789.84 488L803.69 496L803.69 512L789.84 520L775.98 512L775.98 496zM775.98 512L789.84 520L789.84 536L775.98 544L762.12 536L762.12 520zM789.84 536L803.69 544L803.69 560L789.84 568L775.98 560L775.98 544zM775.98 560L789.84 568L789.84 584L775.98 592L762.12 584L762.12 568zM789.84 584L803.69 592L803.69 608L789.84 616L775.98 608L775.98 592zM775.98 608L789.84 616L789.84 632L775.98 640L762.12 632L762.12 616zM803.69 -16L817.55 -8L817.55 8L803.69 16L789.84 8L789.84 -8zM817.55 8L831.41 16L831.41 32L817.55 40L803.69 32L803.69 16zM803.69 32L817.55 40L817.55 56L803.69 64L789.84 56L789.84 40zM817.55 56L831.41 64L831.41 80L817.55 88L803.69 80L803.69 64zM803.69 80L817.55 88L817.55 104L803.69 112L789.84 104L789.84 88zM817.55 104L831.41 112L831.41 128L817.55 136L803.69 128L803.69 112zM803.69 128L817.55 136L817.55 152L803.69 160L789.84 152L789.84 136zM817.55 152L831.41 160L831.41 176L817.55 184L803.69 176L803.69 160zM803.69 176L817.55 184L817.55 200L803.69 208L789.84 200L789.84 184zM817.55 200L831.41 208L831.41 224L817.55 232L803.69 224L803.69 208zM803.69 224L817.55 232L817.55 248L803.69 256L789.84 248L789.84 232zM817.55 248L831.41 256L831.41 272L817.55 280L803.69 272L803.69 256zM803.69 272L817.55 280L817.55 296L803.69 304L789.84 296L789.84 280zM817.55 296L831.41 304L831.41 320L817.55 328L803.69 320L803.69 304zM803.69 320L817.55 328L817.55 344L803.69 352L789.84 344L789.84 328zM817.55 344L831.41 352L831.41 368L817.55 376L803.69 368L803.69 352zM803.69 368L817.55 376L817.55 392L803.69 400L789.84 392L789.84 376zM817.55 392L831.41 400L831.41 416L817.55 424L803.69 416L803.69 400zM803.69 416L817.55 424L817.55 440L803.69 448L789.84 440L789.84 424zM817.55 440L831.41 448L831.41 464L817.55 472L803.69 464L803.69 448zM803.69 464L817.55 472L817.55 488L803.69 496L789.84 488L789.84 472zM817.55 488L831.41 496L831.41 512L817.55 520L803.69 512L803.69 496zM803.69 512L817.55 520L817.55 536L803.69 544L789.84 536L789.84 520zM817.55 536L831.41 544L831.41 560L817.55 568L803.69 560L803.69 544zM803.69 560L817.55 568L817.55 584L803.69 592L789.84 584L789.84 568zM817.55 584L831.41 592L831.41 608L817.55 616L803.69 608L803.69 592zM803.69 608L817.55 616L817.55 632L803.69 640L789.84 632L789.84 616zM831.41 -16L845.26 -8L845.26 8L831.41 16L817.55 8L817.55 -8zM845.26 8L859.12 16L859.12 32L845.26 40L831.41 32L831.41 16zM831.41 32L845.26 40L845.26 56L831.41 64L817.55 56L817.55 40zM845.26 56L859.12 64L859.12 80L845.26 88L831.41 80L831.41 64zM831.41 80L845.26 88L845.26 104L831.41 112L817.55 104L817.55 88zM845.26 104L859.12 112L859.12 128L845.26 136L831.41 128L831.41 112zM831.41 128L845.26 136L845.26 152L831.41 160L817.55 152L817.55 136zM845.26 152L859.12 160L859.12 176L845.26 184L831.41 176L831.41 160zM831.41 176L845.26 184L845.26 200L831.41 208L817.55 200L817.55 184zM845.26 200L859.12 208L859.12 224L845.26 232L831.41 224L831.41 208zM831.41 224L845.26 232L845.26 248L831.41 256L817.55 248L817.55 232zM845.26 248L859.12 256L859.12 272L845.26 280L831.41 272L831.41 256zM831.41 272L845.26 280L845.26 296L831.41 304L817.55 296L817.55 280zM845.26 296L859.12 304L859.12 320L845.26 328L831.41 320L831.41 304zM831.41 320L845.26 328L845.26 344L831.41 352L817.55 344L817.55 328zM845.26 344L859.12 352L859.12 368L845.26 376L831.41 368L831.41 352zM831.41 368L845.26 376L845.26 392L831.41 400L817.55 392L817.55 376zM845.26 392L859.12 400L859.12 416L845.26 424L831.41 416L831.41 400zM831.41 416L845.26 424L845.26 440L831.41 448L817.55 440L817.55 424zM845.26 440L859.12 448L859.12 464L845.26 472L831.41 464L831.41 448zM831.41 464L845.26 472L845.26 488L831.41 496L817.55 488L817.55 472zM845.26 488L859.12 496L859.12 512L845.26 520L831.41 512L831.41 496zM831.41 512L845.26 520L845.26 536L831.41 544L817.55 536L817.55 520zM845.26 536L859.12 544L859.12 560L845.26 568L831.41 560L831.41 544zM831.41 560L845.26 568L845.26 584L831.41 592L817.55 584L817.55 568zM845.26 584L859.12 592L859.12 608L845.26 616L831.41 608L831.41 592zM831.41 608L845.26 616L845.26 632L831.41 640L817.55 632L817.55 616zM859.12 -16L872.98 -8L872.98 8L859.12 16L845.26 8L845.26 -8zM872.98 8L886.84 16L886.84 32L872.98 40L859.12 32L859.12 16zM859.12 32L872.98 40L872.98 56L859.12 64L845.26 56L845.26 40zM872.98 56L886.84 64L886.84 80L872.98 88L859.12 80L859.12 64zM859.12 80L872.98 88L872.98 104L859.12 112L845.26 104L845.26 88zM872.98 104L886.84 112L886.84 128L872.98 136L859.12 128L859.12 112zM859.12 128L872.98 136L872.98 152L859.12 160L845.26 152L845.26 136zM872.98 152L886.84 160L886.84 176L872.98 184L859.12 176L859.12 160zM859.12 176L872.98 184L872.98 200L859.12 208L845.26 200L845.26 184zM872.98 200L886.84 208L886.84 224L872.98 232L859.12 224L859.12 208zM859.12 224L872.98 232L872.98 248L859.12 256L845.26 248L845.26 232zM872.98 248L886.84 256L886.84 272L872.98 280L859.12 272L859.12 256zM859.12 272L872.98 280L872.98 296L859.12 304L845.26 296L845.26 280zM872.98 296L886.84 304L886.84 320L872.98 328L859.12 320L859.12 304zM859.12 320L872.98 328L872.98 344L859.12 352L845.26 344L845.26 328zM872.98 344L886.84 352L886.84 368L872.98 376L859.12 368L859.12 352zM859.12 368L872.98 376L872.98 392L859.12 400L845.26 392L845.26 376zM872.98 392L886.84 400L886.84 416L872.98 424L859.12 416L859.12 400zM859.12 416L872.98 424L872.98 440L859.12 448L845.26 440L845.26 424zM872.98 440L886.84 448L886.84 464L872.98 472L859.12 464L859.12 448zM859.12 464L872.98 472L872.98 488L859.12 496L845.26 488L845.26 472zM872.98 488L886.84 496L886.84 512L872.98 520L859.12 512L859.12 496zM859.12 512L872.98 520L872.98 536L859.12 544L845.26 536L845.26 520zM872.98 536L886.84 544L886.84 560L872.98 568L859.12 560L859.12 544zM859.12 560L872.98 568L872.98 584L859.12 592L845.26 584L845.26 568zM872.98 584L886.84 592L886.84 608L872.98 616L859.12 608L859.12 592zM859.12 608L872.98 616L872.98 632L859.12 640L845.26 632L845.26 616zM886.84 -16L900.69 -8L900.69 8L886.84 16L872.98 8L872.98 -8zM900.69 8L914.55 16L914.55 32L900.69 40L886.84 32L886.84 16zM886.84 32L900.69 40L900.69 56L886.84 64L872.98 56L872.98 40zM900.69 56L914.55 64L914.55 80L900.69 88L886.84 80L886.84 64zM886.84 80L900.69 88L900.69 104L886.84 112L872.98 104L872.98 88zM900.69 104L914.55 112L914.55 128L900.69 136L886.84 128L886.84 112zM886.84 128L900.69 136L900.69 152L886.84 160L872.98 152L872.98 136zM900.69 152L914.55 160L914.55 176L900.69 184L886.84 176L886.84 160zM886.84 176L900.69 184L900.69 200L886.84 208L872.98 200L872.98 184zM900.69 200L914.55 208L914.55 224L900.69 232L886.84 224L886.84 208zM886.84 224L900.69 232L900.69 248L886.84 256L872.98 248L872.98 232zM900.69 248L914.55 256L914.55 272L900.69 280L886.84 272L886.84 256zM886.84 272L900.69 280L900.69 296L886.84 304L872.98 296L872.98 280zM900.69 296L914.55 304L914.55 320L900.69 328L886.84 320L886.84 304zM886.84 320L900.69 328L900.69 344L886.84 352L872.98 344L872.98 328zM900.69 344L914.55 352L914.55 368L900.69 376L886.84 368L886.84 352zM886.84 368L900.69 376L900.69 392L886.84 400L872.98 392L872.98 376zM900.69 392L914.55 400L914.55 416L900.69 424L886.84 416L886.84 400zM886.84 416L900.69 424L900.69 440L886.84 448L872.98 440L872.98 424zM900.69 440L914.55 448L914.55 464L900.69 472L886.84 464L886.84 448zM886.84 464L900.69 472L900.69 488L886.84 496L872.98 488L872.98 472zM900.69 488L914.55 496L914.55 512L900.69 520L886.84 512L886.84 496zM886.84 512L900.69 520L900.69 536L886.84 544L872.98 536L872.98 520zM900.69 536L914.55 544L914.55 560L900.69 568L886.84 560L886.84 544zM886.84 560L900.69 568L900.69 584L886.84 592L872.98 584L872.98 568zM900.69 584L914.55 592L914.55 608L900.69 616L886.84 608L886.84 592zM886.84 608L900.69 616L900.69 632L886.84 640L872.98 632L872.98 616zM914.55 -16L928.41 -8L928.41 8L914.55 16L900.69 8L900.69 -8zM928.41 8L942.26 16L942.26 32L928.41 40L914.55 32L914.55 16zM914.55 32L928.41 40L928.41 56L914.55 64L900.69 56L900.69 40zM928.41 56L942.26 64L942.26 80L928.41 88L914.55 80L914.55 64zM914.55 80L928.41 88L928.41 104L914.55 112L900.69 104L900.69 88zM928.41 104L942.26 112L942.26 128L928.41 136L914.55 128L914.55 112zM914.55 128L928.41 136L928.41 152L914.55 160L900.69 152L900.69 136zM928.41 152L942.26 160L942.26 176L928.41 184L914.55 176L914.55 160zM914.55 176L928.41 184L928.41 200L914.55 208L900.69 200L900.69 184zM928.41 200L942.26 208L942.26 224L928.41 232L914.55 224L914.55 208zM914.55 224L928.41 232L928.41 248L914.55 256L900.69 248L900.69 232zM928.41 248L942.26 256L942.26 272L928.41 280L914.55 272L914.55 256zM914.55 272L928.41 280L928.41 296L914.55 304L900.69 296L900.69 280zM928.41 296L942.26 304L942.26 320L928.41 328L914.55 320L914.55 304zM914.55 320L928.41 328L928.41 344L914.55 352L900.69 344L900.69 328zM928.41 344L942.26 352L942.26 368L928.41 376L914.55 368L914.55 352zM914.55 368L928.41 376L928.41 392L914.55 400L900.69 392L900.69 376zM928.41 392L942.26 400L942.26 416L928.41 424L914.55 416L914.55 400zM914.55 416L928.41 424L928.41 440L914.55 448L900.69 440L900.69 424zM928.41 440L942.26 448L942.26 464L928.41 472L914.55 464L914.55 448zM914.55 464L928.41 472L928.41 488L914.55 496L900.69 488L900.69 472zM928.41 488L942.26 496L942.26 512L928.41 520L914.55 512L914.55 496zM914.55 512L928.41 520L928.41 536L914.55 544L900.69 536L900.69 520zM928.41 536L942.26 544L942.26 560L928.41 568L914.55 560L914.55 544zM914.55 560L928.41 568L928.41 584L914.55 592L900.69 584L900.69 568zM928.41 584L942.26 592L942.26 608L928.41 616L914.55 608L914.55 592zM914.55 608L928.41 616L928.41 632L914.55 640L900.69 632L900.69 616zM942.26 -16L956.12 -8L956.12 8L942.26 16L928.41 8L928.41 -8zM956.12 8L969.98 16L969.98 32L956.12 40L942.26 32L942.26 16zM942.26 32L956.12 40L956.12 56L942.26 64L928.41 56L928.41 40zM956.12 56L969.98 64L969.98 80L956.12 88L942.26 80L942.26 64zM942.26 80L956.12 88L956.12 104L942.26 112L928.41 104L928.41 88zM956.12 104L969.98 112L969.98 128L956.12 136L942.26 128L942.26 112zM942.26 128L956.12 136L956.12 152L942.26 160L928.41 152L928.41 136zM956.12 152L969.98 160L969.98 176L956.12 184L942.26 176L942.26 160zM942.26 176L956.12 184L956.12 200L942.26 208L928.41 200L928.41 184zM956.12 200L969.98 208L969.98 224L956.12 232L942.26 224L942.26 208zM942.26 224L956.12 232L956.12 248L942.26 256L928.41 248L928.41 232zM956.12 248L969.98 256L969.98 272L956.12 280L942.26 272L942.26 256zM942.26 272L956.12 280L956.12 296L942.26 304L928.41 296L928.41 280zM956.12 296L969.98 304L969.98 320L956.12 328L942.26 320L942.26 304zM942.26 320L956.12 328L956.12 344L942.26 352L928.41 344L928.41 328zM956.12 344L969.98 352L969.98 368L956.12 376L942.26 368L942.26 352zM942.26 368L956.12 376L956.12 392L942.26 400L928.41 392L928.41 376zM956.12 392L969.98 400L969.98 416L956.12 424L942.26 416L942.26 400zM942.26 416L956.12 424L956.12 440L942.26 448L928.41 440L928.41 424zM956.12 440L969.98 448L969.98 464L956.12 472L942.26 464L942.26 448zM942.26 464L956.12 472L956.12 488L942.26 496L928.41 488L928.41 472zM956.12 488L969.98 496L969.98 512L956.12 520L942.26 512L942.26 496zM942.26 512L956.12 520L956.12 536L942.26 544L928.41 536L928.41 520zM956.12 536L969.98 544L969.98 560L956.12 568L942.26 560L942.26 544zM942.26 560L956.12 568L956.12 584L942.26 592L928.41 584L928.41 568zM956.12 584L969.98 592L969.98 608L956.12 616L942.26 608L942.26 592zM942.26 608L956.12 616L956.12 632L942.26 640L928.41 632L928.41 616zM969.98 -16L983.83 -8L983.83 8L969.98 16L956.12 8L956.12 -8zM983.83 8L997.69 16L997.69 32L983.83 40L969.98 32L969.98 16zM969.98 32L983.83 40L983.83 56L969.98 64L956.12 56L956.12 40zM983.83 56L997.69 64L997.69 80L983.83 88L969.98 80L969.98 64zM969.98 80L983.83 88L983.83 104L969.98 112L956.12 104L956.12 88zM983.83 104L997.69 112L997.69 128L983.83 136L969.98 128L969.98 112zM969.98 128L983.83 136L983.83 152L969.98 160L956.12 152L956.12 136zM983.83 152L997.69 160L997.69 176L983.83 184L969.98 176L969.98 160zM969.98 176L983.83 184L983.83 200L969.98 208L956.12 200L956.12 184zM983.83 200L997.69 208L997.69 224L983.83 232L969.98 224L969.98 208zM969.98 224L983.83 232L983.83 248L969.98 256L956.12 248L956.12 232zM983.83 248L997.69 256L997.69 272L983.83 280L969.98 272L969.98 256zM969.98 272L983.83 280L983.83 296L969.98 304L956.12 296L956.12 280zM983.83 296L997.69 304L997.69 320L983.83 328L969.98 320L969.98 304zM969.98 320L983.83 328L983.83 344L969.98 352L956.12 344L956.12 328zM983.83 344L997.69 352L997.69 368L983.83 376L969.98 368L969.98 352zM969.98 368L983.83 376L983.83 392L969.98 400L956.12 392L956.12 376zM983.83 392L997.69 400L997.69 416L983.83 424L969.98 416L969.98 400zM969.98 416L983.83 424L983.83 440L969.98 448L956.12 440L956.12 424zM983.83 440L997.69 448L997.69 464L983.83 472L969.98 464L969.98 448zM969.98 464L983.83 472L983.83 488L969.98 496L956.12 488L956.12 472zM983.83 488L997.69 496L997.69 512L983.83 520L969.98 512L969.98 496zM969.98 512L983.83 520L983.83 536L969.98 544L956.12 536L956.12 520zM983.83 536L997.69 544L997.69 560L983.83 568L969.98 560L969.98 544zM969.98 560L983.83 568L983.83 584L969.98 592L956.12 584L956.12 568zM983.83 584L997.69 592L997.69 608L983.83 616L969.98 608L969.98 592zM969.98 608L983.83 616L983.83 632L969.98 640L956.12 632L956.12 616zM997.69 -16L1011.55 -8L1011.55 8L997.69 16L983.83 8L983.83 -8zM1011.55 8L1025.4 16L1025.4 32L1011.55 40L997.69 32L997.69 16zM997.69 32L1011.55 40L1011.55 56L997.69 64L983.83 56L983.83 40zM1011.55 56L1025.4 64L1025.4 80L1011.55 88L997.69 80L997.69 64zM997.69 80L1011.55 88L1011.55 104L997.69 112L983.83 104L983.83 88zM1011.55 104L1025.4 112L1025.4 128L1011.55 136L997.69 128L997.69 112zM997.69 128L1011.55 136L1011.55 152L997.69 160L983.83 152L983.83 136zM1011.55 152L1025.4 160L1025.4 176L1011.55 184L997.69 176L997.69 160zM997.69 176L1011.55 184L1011.55 200L997.69 208L983.83 200L983.83 184zM1011.55 200L1025.4 208L1025.4 224L1011.55 232L997.69 224L997.69 208zM997.69 224L1011.55 232L1011.55 248L997.69 256L983.83 248L983.83 232zM1011.55 248L1025.4 256L1025.4 272L1011.55 280L997.69 272L997.69 256zM997.69 272L1011.55 280L1011.55 296L997.69 304L983.83 296L983.83 280zM1011.55 296L1025.4 304L1025.4 320L1011.55 328L997.69 320L997.69 304zM997.69 320L1011.55 328L1011.55 344L997.69 352L983.83 344L983.83 328zM1011.55 344L1025.4 352L1025.4 368L1011.55 376L997.69 368L997.69 352zM997.69 368L1011.55 376L1011.55 392L997.69 400L983.83 392L983.83 376zM1011.55 392L1025.4 400L1025.4 416L1011.55 424L997.69 416L997.69 400zM997.69 416L1011.55 424L1011.55 440L997.69 448L983.83 440L983.83 424zM1011.55 440L1025.4 448L1025.4 464L1011.55 472L997.69 464L997.69 448zM997.69 464L1011.55 472L1011.55 488L997.69 496L983.83 488L983.83 472zM1011.55 488L1025.4 496L1025.4 512L1011.55 520L997.69 512L997.69 496zM997.69 512L1011.55 520L1011.55 536L997.69 544L983.83 536L983.83 520zM1011.55 536L1025.4 544L1025.4 560L1011.55 568L997.69 560L997.69 544zM997.69 560L1011.55 568L1011.55 584L997.69 592L983.83 584L983.83 568zM1011.55 584L1025.4 592L1025.4 608L1011.55 616L997.69 608L997.69 592zM997.69 608L1011.55 616L1011.55 632L997.69 640L983.83 632L983.83 616zM1025.4 -16L1039.26 -8L1039.26 8L1025.4 16L1011.55 8L1011.55 -8zM1039.26 8L1053.12 16L1053.12 32L1039.26 40L1025.4 32L1025.4 16zM1025.4 32L1039.26 40L1039.26 56L1025.4 64L1011.55 56L1011.55 40zM1039.26 56L1053.12 64L1053.12 80L1039.26 88L1025.4 80L1025.4 64zM1025.4 80L1039.26 88L1039.26 104L1025.4 112L1011.55 104L1011.55 88zM1039.26 104L1053.12 112L1053.12 128L1039.26 136L1025.4 128L1025.4 112zM1025.4 128L1039.26 136L1039.26 152L1025.4 160L1011.55 152L1011.55 136zM1039.26 152L1053.12 160L1053.12 176L1039.26 184L1025.4 176L1025.4 160zM1025.4 176L1039.26 184L1039.26 200L1025.4 208L1011.55 200L1011.55 184zM1039.26 200L1053.12 208L1053.12 224L1039.26 232L1025.4 224L1025.4 208zM1025.4 224L1039.26 232L1039.26 248L1025.4 256L1011.55 248L1011.55 232zM1039.26 248L1053.12 256L1053.12 272L1039.26 280L1025.4 272L1025.4 256zM1025.4 272L1039.26 280L1039.26 296L1025.4 304L1011.55 296L1011.55 280zM1039.26 296L1053.12 304L1053.12 320L1039.26 328L1025.4 320L1025.4 304zM1025.4 320L1039.26 328L1039.26 344L1025.4 352L1011.55 344L1011.55 328zM1039.26 344L1053.12 352L1053.12 368L1039.26 376L1025.4 368L1025.4 352zM1025.4 368L1039.26 376L1039.26 392L1025.4 400L1011.55 392L1011.55 376zM1039.26 392L1053.12 400L1053.12 416L1039.26 424L1025.4 416L1025.4 400zM1025.4 416L1039.26 424L1039.26 440L1025.4 448L1011.55 440L1011.55 424zM1039.26 440L1053.12 448L1053.12 464L1039.26 472L1025.4 464L1025.4 448zM1025.4 464L1039.26 472L1039.26 488L1025.4 496L1011.55 488L1011.55 472zM1039.26 488L1053.12 496L1053.12 512L1039.26 520L1025.4 512L1025.4 496zM1025.4 512L1039.26 520L1039.26 536L1025.4 544L1011.55 536L1011.55 520zM1039.26 536L1053.12 544L1053.12 560L1039.26 568L1025.4 560L1025.4 544zM1025.4 560L1039.26 568L1039.26 584L1025.4 592L1011.55 584L1011.55 568zM1039.26 584L1053.12 592L1053.12 608L1039.26 616L1025.4 608L1025.4 592zM1025.4 608L1039.26 616L1039.26 632L1025.4 640L1011.55 632L1011.55 616zM1053.12 -16L1066.97 -8L1066.97 8L1053.12 16L1039.26 8L1039.26 -8zM1066.97 8L1080.83 16L1080.83 32L1066.97 40L1053.12 32L1053.12 16zM1053.12 32L1066.97 40L1066.97 56L1053.12 64L1039.26 56L1039.26 40zM1066.97 56L1080.83 64L1080.83 80L1066.97 88L1053.12 80L1053.12 64zM1053.12 80L1066.97 88L1066.97 104L1053.12 112L1039.26 104L1039.26 88zM1066.97 104L1080.83 112L1080.83 128L1066.97 136L1053.12 128L1053.12 112zM1053.12 128L1066.97 136L1066.97 152L1053.12 160L1039.26 152L1039.26 136zM1066.97 152L1080.83 160L1080.83 176L1066.97 184L1053.12 176L1053.12 160zM1053.12 176L1066.97 184L1066.97 200L1053.12 208L1039.26 200L1039.26 184zM1066.97 200L1080.83 208L1080.83 224L1066.97 232L1053.12 224L1053.12 208zM1053.12 224L1066.97 232L1066.97 248L1053.12 256L1039.26 248L1039.26 232zM1066.97 248L1080.83 256L1080.83 272L1066.97 280L1053.12 272L1053.12 256zM1053.12 272L1066.97 280L1066.97 296L1053.12 304L1039.26 296L1039.26 280zM1066.97 296L1080.83 304L1080.83 320L1066.97 328L1053.12 320L1053.12 304zM1053.12 320L1066.97 328L1066.97 344L1053.12 352L1039.26 344L1039.26 328zM1066.97 344L1080.83 352L1080.83 368L1066.97 376L1053.12 368L1053.12 352zM1053.12 368L1066.97 376L1066.97 392L1053.12 400L1039.26 392L1039.26 376zM1066.97 392L1080.83 400L1080.83 416L1066.97 424L1053.12 416L1053.12 400zM1053.12 416L1066.97 424L1066.97 440L1053.12 448L1039.26 440L1039.26 424zM1066.97 440L1080.83 448L1080.83 464L1066.97 472L1053.12 464L1053.12 448zM1053.12 464L1066.97 472L1066.97 488L1053.12 496L1039.26 488L1039.26 472zM1066.97 488L1080.83 496L1080.83 512L1066.97 520L1053.12 512L1053.12 496zM1053.12 512L1066.97 520L1066.97 536L1053.12 544L1039.26 536L1039.26 520zM1066.97 536L1080.83 544L1080.83 560L1066.97 568L1053.12 560L1053.12 544zM1053.12 560L1066.97 568L1066.97 584L1053.12 592L1039.26 584L1039.26 568zM1066.97 584L1080.83 592L1080.83 608L1066.97 616L1053.12 608L1053.12 592zM1053.12 608L1066.97 616L1066.97 632L1053.12 640L1039.26 632L1039.26 616zM1080.83 -16L1094.69 -8L1094.69 8L1080.83 16L1066.97 8L1066.97 -8zM1094.69 8L1108.54 16L1108.54 32L1094.69 40L1080.83 32L1080.83 16zM1080.83 32L1094.69 40L1094.69 56L1080.83 64L1066.97 56L1066.97 40zM1094.69 56L1108.54 64L1108.54 80L1094.69 88L1080.83 80L1080.83 64zM1080.83 80L1094.69 88L1094.69 104L1080.83 112L1066.97 104L1066.97 88zM1094.69 104L1108.54 112L1108.54 128L1094.69 136L1080.83 128L1080.83 112zM1080.83 128L1094.69 136L1094.69 152L1080.83 160L1066.97 152L1066.97 136zM1094.69 152L1108.54 160L1108.54 176L1094.69 184L1080.83 176L1080.83 160zM1080.83 176L1094.69 184L1094.69 200L1080.83 208L1066.97 200L1066.97 184zM1094.69 200L1108.54 208L1108.54 224L1094.69 232L1080.83 224L1080.83 208zM1080.83 224L1094.69 232L1094.69 248L1080.83 256L1066.97 248L1066.97 232zM1094.69 248L1108.54 256L1108.54 272L1094.69 280L1080.83 272L1080.83 256zM1080.83 272L1094.69 280L1094.69 296L1080.83 304L1066.97 296L1066.97 280zM1094.69 296L1108.54 304L1108.54 320L1094.69 328L1080.83 320L1080.83 304zM1080.83 320L1094.69 328L1094.69 344L1080.83 352L1066.97 344L1066.97 328zM1094.69 344L1108.54 352L1108.54 368L1094.69 376L1080.83 368L1080.83 352zM1080.83 368L1094.69 376L1094.69 392L1080.83 400L1066.97 392L1066.97 376zM1094.69 392L1108.54 400L1108.54 416L1094.69 424L1080.83 416L1080.83 400zM1080.83 416L1094.69 424L1094.69 440L1080.83 448L1066.97 440L1066.97 424zM1094.69 440L1108.54 448L1108.54 464L1094.69 472L1080.83 464L1080.83 448zM1080.83 464L1094.69 472L1094.69 488L1080.83 496L1066.97 488L1066.97 472zM1094.69 488L1108.54 496L1108.54 512L1094.69 520L1080.83 512L1080.83 496zM1080.83 512L1094.69 520L1094.69 536L1080.83 544L1066.97 536L1066.97 520zM1094.69 536L1108.54 544L1108.54 560L1094.69 568L1080.83 560L1080.83 544zM1080.83 560L1094.69 568L1094.69 584L1080.83 592L1066.97 584L1066.97 568zM1094.69 584L1108.54 592L1108.54 608L1094.69 616L1080.83 608L1080.83 592zM1080.83 608L1094.69 616L1094.69 632L1080.83 640L1066.97 632L1066.97 616zM1108.54 -16L1122.4 -8L1122.4 8L1108.54 16L1094.69 8L1094.69 -8zM1122.4 8L1136.26 16L1136.26 32L1122.4 40L1108.54 32L1108.54 16zM1108.54 32L1122.4 40L1122.4 56L1108.54 64L1094.69 56L1094.69 40zM1122.4 56L1136.26 64L1136.26 80L1122.4 88L1108.54 80L1108.54 64zM1108.54 80L1122.4 88L1122.4 104L1108.54 112L1094.69 104L1094.69 88zM1122.4 104L1136.26 112L1136.26 128L1122.4 136L1108.54 128L1108.54 112zM1108.54 128L1122.4 136L1122.4 152L1108.54 160L1094.69 152L1094.69 136zM1122.4 152L1136.26 160L1136.26 176L1122.4 184L1108.54 176L1108.54 160zM1108.54 176L1122.4 184L1122.4 200L1108.54 208L1094.69 200L1094.69 184zM1122.4 200L1136.26 208L1136.26 224L1122.4 232L1108.54 224L1108.54 208zM1108.54 224L1122.4 232L1122.4 248L1108.54 256L1094.69 248L1094.69 232zM1122.4 248L1136.26 256L1136.26 272L1122.4 280L1108.54 272L1108.54 256zM1108.54 272L1122.4 280L1122.4 296L1108.54 304L1094.69 296L1094.69 280zM1122.4 296L1136.26 304L1136.26 320L1122.4 328L1108.54 320L1108.54 304zM1108.54 320L1122.4 328L1122.4 344L1108.54 352L1094.69 344L1094.69 328zM1122.4 344L1136.26 352L1136.26 368L1122.4 376L1108.54 368L1108.54 352zM1108.54 368L1122.4 376L1122.4 392L1108.54 400L1094.69 392L1094.69 376zM1122.4 392L1136.26 400L1136.26 416L1122.4 424L1108.54 416L1108.54 400zM1108.54 416L1122.4 424L1122.4 440L1108.54 448L1094.69 440L1094.69 424zM1122.4 440L1136.26 448L1136.26 464L1122.4 472L1108.54 464L1108.54 448zM1108.54 464L1122.4 472L1122.4 488L1108.54 496L1094.69 488L1094.69 472zM1122.4 488L1136.26 496L1136.26 512L1122.4 520L1108.54 512L1108.54 496zM1108.54 512L1122.4 520L1122.4 536L1108.54 544L1094.69 536L1094.69 520zM1122.4 536L1136.26 544L1136.26 560L1122.4 568L1108.54 560L1108.54 544zM1108.54 560L1122.4 568L1122.4 584L1108.54 592L1094.69 584L1094.69 568zM1122.4 584L1136.26 592L1136.26 608L1122.4 616L1108.54 608L1108.54 592zM1108.54 608L1122.4 616L1122.4 632L1108.54 640L1094.69 632L1094.69 616zM1136.26 -16L1150.11 -8L1150.11 8L1136.26 16L1122.4 8L1122.4 -8zM1150.11 8L1163.97 16L1163.97 32L1150.11 40L1136.26 32L1136.26 16zM1136.26 32L1150.11 40L1150.11 56L1136.26 64L1122.4 56L1122.4 40zM1150.11 56L1163.97 64L1163.97 80L1150.11 88L1136.26 80L1136.26 64zM1136.26 80L1150.11 88L1150.11 104L1136.26 112L1122.4 104L1122.4 88zM1150.11 104L1163.97 112L1163.97 128L1150.11 136L1136.26 128L1136.26 112zM1136.26 128L1150.11 136L1150.11 152L1136.26 160L1122.4 152L1122.4 136zM1150.11 152L1163.97 160L1163.97 176L1150.11 184L1136.26 176L1136.26 160zM1136.26 176L1150.11 184L1150.11 200L1136.26 208L1122.4 200L1122.4 184zM1150.11 200L1163.97 208L1163.97 224L1150.11 232L1136.26 224L1136.26 208zM1136.26 224L1150.11 232L1150.11 248L1136.26 256L1122.4 248L1122.4 232zM1150.11 248L1163.97 256L1163.97 272L1150.11 280L1136.26 272L1136.26 256zM1136.26 272L1150.11 280L1150.11 296L1136.26 304L1122.4 296L1122.4 280zM1150.11 296L1163.97 304L1163.97 320L1150.11 328L1136.26 320L1136.26 304zM1136.26 320L1150.11 328L1150.11 344L1136.26 352L1122.4 344L1122.4 328zM1150.11 344L1163.97 352L1163.97 368L1150.11 376L1136.26 368L1136.26 352zM1136.26 368L1150.11 376L1150.11 392L1136.26 400L1122.4 392L1122.4 376zM1150.11 392L1163.97 400L1163.97 416L1150.11 424L1136.26 416L1136.26 400zM1136.26 416L1150.11 424L1150.11 440L1136.26 448L1122.4 440L1122.4 424zM1150.11 440L1163.97 448L1163.97 464L1150.11 472L1136.26 464L1136.26 448zM1136.26 464L1150.11 472L1150.11 488L1136.26 496L1122.4 488L1122.4 472zM1150.11 488L1163.97 496L1163.97 512L1150.11 520L1136.26 512L1136.26 496zM1136.26 512L1150.11 520L1150.11 536L1136.26 544L1122.4 536L1122.4 520zM1150.11 536L1163.97 544L1163.97 560L1150.11 568L1136.26 560L1136.26 544zM1136.26 560L1150.11 568L1150.11 584L1136.26 592L1122.4 584L1122.4 568zM1150.11 584L1163.97 592L1163.97 608L1150.11 616L1136.26 608L1136.26 592zM1136.26 608L1150.11 616L1150.11 632L1136.26 640L1122.4 632L1122.4 616zM1163.97 -16L1177.83 -8L1177.83 8L1163.97 16L1150.11 8L1150.11 -8zM1177.83 8L1191.68 16L1191.68 32L1177.83 40L1163.97 32L1163.97 16zM1163.97 32L1177.83 40L1177.83 56L1163.97 64L1150.11 56L1150.11 40zM1177.83 56L1191.68 64L1191.68 80L1177.83 88L1163.97 80L1163.97 64zM1163.97 80L1177.83 88L1177.83 104L1163.97 112L1150.11 104L1150.11 88zM1177.83 104L1191.68 112L1191.68 128L1177.83 136L1163.97 128L1163.97 112zM1163.97 128L1177.83 136L1177.83 152L1163.97 160L1150.11 152L1150.11 136zM1177.83 152L1191.68 160L1191.68 176L1177.83 184L1163.97 176L1163.97 160zM1163.97 176L1177.83 184L1177.83 200L1163.97 208L1150.11 200L1150.11 184zM1177.83 200L1191.68 208L1191.68 224L1177.83 232L1163.97 224L1163.97 208zM1163.97 224L1177.83 232L1177.83 248L1163.97 256L1150.11 248L1150.11 232zM1177.83 248L1191.68 256L1191.68 272L1177.83 280L1163.97 272L1163.97 256zM1163.97 272L1177.83 280L1177.83 296L1163.97 304L1150.11 296L1150.11 280zM1177.83 296L1191.68 304L1191.68 320L1177.83 328L1163.97 320L1163.97 304zM1163.97 320L1177.83 328L1177.83 344L1163.97 352L1150.11 344L1150.11 328zM1177.83 344L1191.68 352L1191.68 368L1177.83 376L1163.97 368L1163.97 352zM1163.97 368L1177.83 376L1177.83 392L1163.97 400L1150.11 392L1150.11 376zM1177.83 392L1191.68 400L1191.68 416L1177.83 424L1163.97 416L1163.97 400zM1163.97 416L1177.83 424L1177.83 440L1163.97 448L1150.11 440L1150.11 424zM1177.83 440L1191.68 448L1191.68 464L1177.83 472L1163.97 464L1163.97 448zM1163.97 464L1177.83 472L1177.83 488L1163.97 496L1150.11 488L1150.11 472zM1177.83 488L1191.68 496L1191.68 512L1177.83 520L1163.97 512L1163.97 496zM1163.97 512L1177.83 520L1177.83 536L1163.97 544L1150.11 536L1150.11 520zM1177.83 536L1191.68 544L1191.68 560L1177.83 568L1163.97 560L1163.97 544zM1163.97 560L1177.83 568L1177.83 584L1163.97 592L1150.11 584L1150.11 568zM1177.83 584L1191.68 592L1191.68 608L1177.83 616L1163.97 608L1163.97 592zM1163.97 608L1177.83 616L1177.83 632L1163.97 640L1150.11 632L1150.11 616zM1191.68 -16L1205.54 -8L1205.54 8L1191.68 16L1177.83 8L1177.83 -8zM1205.54 8L1219.4 16L1219.4 32L1205.54 40L1191.68 32L1191.68 16zM1191.68 32L1205.54 40L1205.54 56L1191.68 64L1177.83 56L1177.83 40zM1205.54 56L1219.4 64L1219.4 80L1205.54 88L1191.68 80L1191.68 64zM1191.68 80L1205.54 88L1205.54 104L1191.68 112L1177.83 104L1177.83 88zM1205.54 104L1219.4 112L1219.4 128L1205.54 136L1191.68 128L1191.68 112zM1191.68 128L1205.54 136L1205.54 152L1191.68 160L1177.83 152L1177.83 136zM1205.54 152L1219.4 160L1219.4 176L1205.54 184L1191.68 176L1191.68 160zM1191.68 176L1205.54 184L1205.54 200L1191.68 208L1177.83 200L1177.83 184zM1205.54 200L1219.4 208L1219.4 224L1205.54 232L1191.68 224L1191.68 208zM1191.68 224L1205.54 232L1205.54 248L1191.68 256L1177.83 248L1177.83 232zM1205.54 248L1219.4 256L1219.4 272L1205.54 280L1191.68 272L1191.68 256zM1191.68 272L1205.54 280L1205.54 296L1191.68 304L1177.83 296L1177.83 280zM1205.54 296L1219.4 304L1219.4 320L1205.54 328L1191.68 320L1191.68 304zM1191.68 320L1205.54 328L1205.54 344L1191.68 352L1177.83 344L1177.83 328zM1205.54 344L1219.4 352L1219.4 368L1205.54 376L1191.68 368L1191.68 352zM1191.68 368L1205.54 376L1205.54 392L1191.68 400L1177.83 392L1177.83 376zM1205.54 392L1219.4 400L1219.4 416L1205.54 424L1191.68 416L1191.68 400zM1191.68 416L1205.54 424L1205.54 440L1191.68 448L1177.83 440L1177.83 424zM1205.54 440L1219.4 448L1219.4 464L1205.54 472L1191.68 464L1191.68 448zM1191.68 464L1205.54 472L1205.54 488L1191.68 496L1177.83 488L1177.83 472zM1205.54 488L1219.4 496L1219.4 512L1205.54 520L1191.68 512L1191.68 496zM1191.68 512L1205.54 520L1205.54 536L1191.68 544L1177.83 536L1177.83 520zM1205.54 536L1219.4 544L1219.4 560L1205.54 568L1191.68 560L1191.68 544zM1191.68 560L1205.54 568L1205.54 584L1191.68 592L1177.83 584L1177.83 568zM1205.54 584L1219.4 592L1219.4 608L1205.54 616L1191.68 608L1191.68 592zM1191.68 608L1205.54 616L1205.54 632L1191.68 640L1177.83 632L1177.83 616zM1219.4 -16L1233.26 -8L1233.26 8L1219.4 16L1205.54 8L1205.54 -8zM1233.26 8L1247.11 16L1247.11 32L1233.26 40L1219.4 32L1219.4 16zM1219.4 32L1233.26 40L1233.26 56L1219.4 64L1205.54 56L1205.54 40zM1233.26 56L1247.11 64L1247.11 80L1233.26 88L1219.4 80L1219.4 64zM1219.4 80L1233.26 88L1233.26 104L1219.4 112L1205.54 104L1205.54 88zM1233.26 104L1247.11 112L1247.11 128L1233.26 136L1219.4 128L1219.4 112zM1219.4 128L1233.26 136L1233.26 152L1219.4 160L1205.54 152L1205.54 136zM1233.26 152L1247.11 160L1247.11 176L1233.26 184L1219.4 176L1219.4 160zM1219.4 176L1233.26 184L1233.26 200L1219.4 208L1205.54 200L1205.54 184zM1233.26 200L1247.11 208L1247.11 224L1233.26 232L1219.4 224L1219.4 208zM1219.4 224L1233.26 232L1233.26 248L1219.4 256L1205.54 248L1205.54 232zM1233.26 248L1247.11 256L1247.11 272L1233.26 280L1219.4 272L1219.4 256zM1219.4 272L1233.26 280L1233.26 296L1219.4 304L1205.54 296L1205.54 280zM1233.26 296L1247.11 304L1247.11 320L1233.26 328L1219.4 320L1219.4 304zM1219.4 320L1233.26 328L1233.26 344L1219.4 352L1205.54 344L1205.54 328zM1233.26 344L1247.11 352L1247.11 368L1233.26 376L1219.4 368L1219.4 352zM1219.4 368L1233.26 376L1233.26 392L1219.4 400L1205.54 392L1205.54 376zM1233.26 392L1247.11 400L1247.11 416L1233.26 424L1219.4 416L1219.4 400zM1219.4 416L1233.26 424L1233.26 440L1219.4 448L1205.54 440L1205.54 424zM1233.26 440L1247.11 448L1247.11 464L1233.26 472L1219.4 464L1219.4 448zM1219.4 464L1233.26 472L1233.26 488L1219.4 496L1205.54 488L1205.54 472zM1233.26 488L1247.11 496L1247.11 512L1233.26 520L1219.4 512L1219.4 496zM1219.4 512L1233.26 520L1233.26 536L1219.4 544L1205.54 536L1205.54 520zM1233.26 536L1247.11 544L1247.11 560L1233.26 568L1219.4 560L1219.4 544zM1219.4 560L1233.26 568L1233.26 584L1219.4 592L1205.54 584L1205.54 568zM1233.26 584L1247.11 592L1247.11 608L1233.26 616L1219.4 608L1219.4 592zM1219.4 608L1233.26 616L1233.26 632L1219.4 640L1205.54 632L1205.54 616zM1247.11 -16L1260.97 -8L1260.97 8L1247.11 16L1233.26 8L1233.26 -8zM1260.97 8L1274.83 16L1274.83 32L1260.97 40L1247.11 32L1247.11 16zM1247.11 32L1260.97 40L1260.97 56L1247.11 64L1233.26 56L1233.26 40zM1260.97 56L1274.83 64L1274.83 80L1260.97 88L1247.11 80L1247.11 64zM1247.11 80L1260.97 88L1260.97 104L1247.11 112L1233.26 104L1233.26 88zM1260.97 104L1274.83 112L1274.83 128L1260.97 136L1247.11 128L1247.11 112zM1247.11 128L1260.97 136L1260.97 152L1247.11 160L1233.26 152L1233.26 136zM1260.97 152L1274.83 160L1274.83 176L1260.97 184L1247.11 176L1247.11 160zM1247.11 176L1260.97 184L1260.97 200L1247.11 208L1233.26 200L1233.26 184zM1260.97 200L1274.83 208L1274.83 224L1260.97 232L1247.11 224L1247.11 208zM1247.11 224L1260.97 232L1260.97 248L1247.11 256L1233.26 248L1233.26 232zM1260.97 248L1274.83 256L1274.83 272L1260.97 280L1247.11 272L1247.11 256zM1247.11 272L1260.97 280L1260.97 296L1247.11 304L1233.26 296L1233.26 280zM1260.97 296L1274.83 304L1274.83 320L1260.97 328L1247.11 320L1247.11 304zM1247.11 320L1260.97 328L1260.97 344L1247.11 352L1233.26 344L1233.26 328zM1260.97 344L1274.83 352L1274.83 368L1260.97 376L1247.11 368L1247.11 352zM1247.11 368L1260.97 376L1260.97 392L1247.11 400L1233.26 392L1233.26 376zM1260.97 392L1274.83 400L1274.83 416L1260.97 424L1247.11 416L1247.11 400zM1247.11 416L1260.97 424L1260.97 440L1247.11 448L1233.26 440L1233.26 424zM1260.97 440L1274.83 448L1274.83 464L1260.97 472L1247.11 464L1247.11 448zM1247.11 464L1260.97 472L1260.97 488L1247.11 496L1233.26 488L1233.26 472zM1260.97 488L1274.83 496L1274.83 512L1260.97 520L1247.11 512L1247.11 496zM1247.11 512L1260.97 520L1260.97 536L1247.11 544L1233.26 536L1233.26 520zM1260.97 536L1274.83 544L1274.83 560L1260.97 568L1247.11 560L1247.11 544zM1247.11 560L1260.97 568L1260.97 584L1247.11 592L1233.26 584L1233.26 568zM1260.97 584L1274.83 592L1274.83 608L1260.97 616L1247.11 608L1247.11 592zM1247.11 608L1260.97 616L1260.97 632L1247.11 640L1233.26 632L1233.26 616zM1274.83 -16L1288.68 -8L1288.68 8L1274.83 16L1260.97 8L1260.97 -8zM1288.68 8L1302.54 16L1302.54 32L1288.68 40L1274.83 32L1274.83 16zM1274.83 32L1288.68 40L1288.68 56L1274.83 64L1260.97 56L1260.97 40zM1288.68 56L1302.54 64L1302.54 80L1288.68 88L1274.83 80L1274.83 64zM1274.83 80L1288.68 88L1288.68 104L1274.83 112L1260.97 104L1260.97 88zM1288.68 104L1302.54 112L1302.54 128L1288.68 136L1274.83 128L1274.83 112zM1274.83 128L1288.68 136L1288.68 152L1274.83 160L1260.97 152L1260.97 136zM1288.68 152L1302.54 160L1302.54 176L1288.68 184L1274.83 176L1274.83 160zM1274.83 176L1288.68 184L1288.68 200L1274.83 208L1260.97 200L1260.97 184zM1288.68 200L1302.54 208L1302.54 224L1288.68 232L1274.83 224L1274.83 208zM1274.83 224L1288.68 232L1288.68 248L1274.83 256L1260.97 248L1260.97 232zM1288.68 248L1302.54 256L1302.54 272L1288.68 280L1274.83 272L1274.83 256zM1274.83 272L1288.68 280L1288.68 296L1274.83 304L1260.97 296L1260.97 280zM1288.68 296L1302.54 304L1302.54 320L1288.68 328L1274.83 320L1274.83 304zM1274.83 320L1288.68 328L1288.68 344L1274.83 352L1260.97 344L1260.97 328zM1288.68 344L1302.54 352L1302.54 368L1288.68 376L1274.83 368L1274.83 352zM1274.83 368L1288.68 376L1288.68 392L1274.83 400L1260.97 392L1260.97 376zM1288.68 392L1302.54 400L1302.54 416L1288.68 424L1274.83 416L1274.83 400zM1274.83 416L1288.68 424L1288.68 440L1274.83 448L1260.97 440L1260.97 424zM1288.68 440L1302.54 448L1302.54 464L1288.68 472L1274.83 464L1274.83 448zM1274.83 464L1288.68 472L1288.68 488L1274.83 496L1260.97 488L1260.97 472zM1288.68 488L1302.54 496L1302.54 512L1288.68 520L1274.83 512L1274.83 496zM1274.83 512L1288.68 520L1288.68 536L1274.83 544L1260.97 536L1260.97 520zM1288.68 536L1302.54 544L1302.54 560L1288.68 568L1274.83 560L1274.83 544zM1274.83 560L1288.68 568L1288.68 584L1274.83 592L1260.97 584L1260.97 568zM1288.68 584L1302.54 592L1302.54 608L1288.68 616L1274.83 608L1274.83 592zM1274.83 608L1288.68 616L1288.68 632L1274.83 640L1260.97 632L1260.97 616zM1302.54 -16L1316.4 -8L1316.4 8L1302.54 16L1288.68 8L1288.68 -8zM1316.4 8L1330.25 16L1330.25 32L1316.4 40L1302.54 32L1302.54 16zM1302.54 32L1316.4 40L1316.4 56L1302.54 64L1288.68 56L1288.68 40zM1316.4 56L1330.25 64L1330.25 80L1316.4 88L1302.54 80L1302.54 64zM1302.54 80L1316.4 88L1316.4 104L1302.54 112L1288.68 104L1288.68 88zM1316.4 104L1330.25 112L1330.25 128L1316.4 136L1302.54 128L1302.54 112zM1302.54 128L1316.4 136L1316.4 152L1302.54 160L1288.68 152L1288.68 136zM1316.4 152L1330.25 160L1330.25 176L1316.4 184L1302.54 176L1302.54 160zM1302.54 176L1316.4 184L1316.4 200L1302.54 208L1288.68 200L1288.68 184zM1316.4 200L1330.25 208L1330.25 224L1316.4 232L1302.54 224L1302.54 208zM1302.54 224L1316.4 232L1316.4 248L1302.54 256L1288.68 248L1288.68 232zM1316.4 248L1330.25 256L1330.25 272L1316.4 280L1302.54 272L1302.54 256zM1302.54 272L1316.4 280L1316.4 296L1302.54 304L1288.68 296L1288.68 280zM1316.4 296L1330.25 304L1330.25 320L1316.4 328L1302.54 320L1302.54 304zM1302.54 320L1316.4 328L1316.4 344L1302.54 352L1288.68 344L1288.68 328zM1316.4 344L1330.25 352L1330.25 368L1316.4 376L1302.54 368L1302.54 352zM1302.54 368L1316.4 376L1316.4 392L1302.54 400L1288.68 392L1288.68 376zM1316.4 392L1330.25 400L1330.25 416L1316.4 424L1302.54 416L1302.54 400zM1302.54 416L1316.4 424L1316.4 440L1302.54 448L1288.68 440L1288.68 424zM1316.4 440L1330.25 448L1330.25 464L1316.4 472L1302.54 464L1302.54 448zM1302.54 464L1316.4 472L1316.4 488L1302.54 496L1288.68 488L1288.68 472zM1316.4 488L1330.25 496L1330.25 512L1316.4 520L1302.54 512L1302.54 496zM1302.54 512L1316.4 520L1316.4 536L1302.54 544L1288.68 536L1288.68 520zM1316.4 536L1330.25 544L1330.25 560L1316.4 568L1302.54 560L1302.54 544zM1302.54 560L1316.4 568L1316.4 584L1302.54 592L1288.68 584L1288.68 568zM1316.4 584L1330.25 592L1330.25 608L1316.4 616L1302.54 608L1302.54 592zM1302.54 608L1316.4 616L1316.4 632L1302.54 640L1288.68 632L1288.68 616zM1330.25 -16L1344.11 -8L1344.11 8L1330.25 16L1316.4 8L1316.4 -8zM1344.11 8L1357.97 16L1357.97 32L1344.11 40L1330.25 32L1330.25 16zM1330.25 32L1344.11 40L1344.11 56L1330.25 64L1316.4 56L1316.4 40zM1344.11 56L1357.97 64L1357.97 80L1344.11 88L1330.25 80L1330.25 64zM1330.25 80L1344.11 88L1344.11 104L1330.25 112L1316.4 104L1316.4 88zM1344.11 104L1357.97 112L1357.97 128L1344.11 136L1330.25 128L1330.25 112zM1330.25 128L1344.11 136L1344.11 152L1330.25 160L1316.4 152L1316.4 136zM1344.11 152L1357.97 160L1357.97 176L1344.11 184L1330.25 176L1330.25 160zM1330.25 176L1344.11 184L1344.11 200L1330.25 208L1316.4 200L1316.4 184zM1344.11 200L1357.97 208L1357.97 224L1344.11 232L1330.25 224L1330.25 208zM1330.25 224L1344.11 232L1344.11 248L1330.25 256L1316.4 248L1316.4 232zM1344.11 248L1357.97 256L1357.97 272L1344.11 280L1330.25 272L1330.25 256zM1330.25 272L1344.11 280L1344.11 296L1330.25 304L1316.4 296L1316.4 280zM1344.11 296L1357.97 304L1357.97 320L1344.11 328L1330.25 320L1330.25 304zM1330.25 320L1344.11 328L1344.11 344L1330.25 352L1316.4 344L1316.4 328zM1344.11 344L1357.97 352L1357.97 368L1344.11 376L1330.25 368L1330.25 352zM1330.25 368L1344.11 376L1344.11 392L1330.25 400L1316.4 392L1316.4 376zM1344.11 392L1357.97 400L1357.97 416L1344.11 424L1330.25 416L1330.25 400zM1330.25 416L1344.11 424L1344.11 440L1330.25 448L1316.4 440L1316.4 424zM1344.11 440L1357.97 448L1357.97 464L1344.11 472L1330.25 464L1330.25 448zM1330.25 464L1344.11 472L1344.11 488L1330.25 496L1316.4 488L1316.4 472zM1344.11 488L1357.97 496L1357.97 512L1344.11 520L1330.25 512L1330.25 496zM1330.25 512L1344.11 520L1344.11 536L1330.25 544L1316.4 536L1316.4 520zM1344.11 536L1357.97 544L1357.97 560L1344.11 568L1330.25 560L1330.25 544zM1330.25 560L1344.11 568L1344.11 584L1330.25 592L1316.4 584L1316.4 568zM1344.11 584L1357.97 592L1357.97 608L1344.11 616L1330.25 608L1330.25 592zM1330.25 608L1344.11 616L1344.11 632L1330.25 640L1316.4 632L1316.4 616z" stroke="rgba(29, 29, 29, 0.93)" stroke-width="2"></path></g><defs><mask id="SvgjsMask1377"><rect width="1350" height="624" fill="#ffffff"></rect></mask></defs></svg>