<svg width="182.15px" height="122px" xmlns="http://www.w3.org/2000/svg" viewBox="158.925 14 182.15 122" style="background: rgb(11, 11, 12);" preserveAspectRatio="xMidYMid"><defs><linearGradient id="editing-outline-gradient" x1="1.1018150231520483" x2="-0.10181502315204827" y1="1.2986355100472928" y2="-0.29863551004729283"><stop offset="0" stop-color="#ffffff"></stop><stop offset="1" stop-color="#696969"></stop></linearGradient><filter id="editing-outline" x="-100%" y="-100%" width="300%" height="300%"><feMorphology in="SourceGraphic" operator="dilate" radius="2" result="outline"></feMorphology><feComposite operator="out" in="outline" in2="SourceAlpha"></feComposite></filter></defs><g filter="url(#editing-outline)"><g transform="translate(191.09001857042313, 97.43000030517578)"><path d="M7.68 0L0.64 0L8.32-42.24L22.08-42.24L32.06-13.18L37.38-42.24L44.48-42.18L36.67 0L22.02 0L12.80-27.97L7.68 0ZM47.68-39.68L47.68-39.68L47.68-39.68Q49.54-43.52 54.69-43.52L54.69-43.52L54.69-43.52Q59.84-43.52 62.24-40.54L62.24-40.54L62.24-40.54Q64.64-37.57 64.64-30.72L64.64-30.72L64.64-7.87L80.19-42.18L87.81-42.18L67.90 0L52.93 0L51.01-30.72L51.01-30.72Q50.82-34.11 49.89-36.42L49.89-36.42L49.89-36.42Q48.96-38.72 47.68-39.68ZM116.48-16.83L116.48-16.83L116.48-16.83Q117.18-15.49 117.18-12.86L117.18-12.86L117.18-12.86Q117.18-10.24 115.23-8.42L115.23-8.42L115.23-8.42Q113.28-6.59 108.99-6.59L108.99-6.59L108.61-6.59L107.58 0L107.58 0Q105.86 1.28 102.78 1.28L102.78 1.28L102.78 1.28Q98.82 1.28 97.54-1.15L97.54-1.15L97.54-1.15Q97.02-2.05 97.02-2.82L97.02-2.82L97.02-2.82Q97.02-3.71 97.15-4.74L97.15-4.74L97.60-7.17L82.88-8.70L82.88-16.77L106.82-43.58L106.82-43.52L106.88-43.58L115.78-42.62L115.78-42.62Q112.77-30.34 110.21-16.19L110.21-16.19L111.68-16.19L111.68-16.19Q115.33-16.19 116.48-16.83ZM103.62-32.83L89.73-16.64L99.39-16.32L99.39-16.32Q101.50-25.73 103.62-32.83L103.62-32.83Z" fill="url(#editing-outline-gradient)"></path></g></g><style>text {
  font-size: 64px;
  font-family: Arial Black;
  dominant-baseline: central;
  text-anchor: middle;
}</style></svg>